<svg width="220" height="65" viewBox="0 0 220 65" fill="none" xmlns="http://www.w3.org/2000/svg">
<path d="M212.164 65H7.71507C3.49589 65 0 61.5157 0 57.3105V7.68947C0 3.48429 3.43562 0 7.71507 0H212.164C216.384 0 220 3.42422 220 7.68947V57.3105C220 61.5157 216.444 65 212.164 65Z" fill="#A6A6A6"/>
<path d="M218.433 57.3105C218.433 60.7347 215.66 63.5582 212.164 63.5582H7.71503C4.27941 63.5582 1.44653 60.7948 1.44653 57.3105V7.68946C1.44653 4.26524 4.27941 1.44177 7.71503 1.44177H212.164C215.6 1.44177 218.433 4.26524 218.433 7.68946V57.3105Z" fill="black"/>
<path d="M49.1233 32.1396C49.063 26.9131 53.4027 24.33 53.6438 24.2098C51.1726 20.6054 47.3753 20.1248 46.0493 20.1248C42.8548 19.7643 39.7205 22.0472 38.0931 22.0472C36.4055 22.0472 33.9342 20.1849 31.2219 20.2449C27.726 20.305 24.4712 22.2874 22.663 25.4113C18.9863 31.7791 21.6986 41.1507 25.2548 46.317C27.0027 48.8401 29.1123 51.6636 31.8246 51.5435C34.4767 51.4233 35.4411 49.8614 38.6356 49.8614C41.8301 49.8614 42.7342 51.5435 45.5068 51.4834C48.3397 51.4233 50.1479 48.9603 51.8356 46.3771C53.8849 43.4935 54.7288 40.61 54.7288 40.4898C54.6082 40.4898 49.1233 38.4473 49.1233 32.1396Z" fill="white"/>
<path d="M43.8794 16.7607C45.326 14.9585 46.2904 12.5556 45.989 10.0925C43.9397 10.2127 41.3479 11.5343 39.8411 13.2764C38.515 14.7783 37.3698 17.3014 37.6712 19.6443C40.0219 19.8245 42.3726 18.5029 43.8794 16.7607Z" fill="white"/>
<path d="M87.3973 51.183H83.7205L81.6712 44.8152H74.6192L72.6904 51.183H69.074L76.0658 29.5564H80.4055L87.3973 51.183ZM81.0685 42.1719L79.2603 36.525C79.0795 35.9242 78.7178 34.6026 78.1753 32.4399H78.1151C77.874 33.341 77.5726 34.7228 77.0904 36.525L75.2822 42.1719H81.0685Z" fill="white"/>
<path d="M105.359 43.1929C105.359 45.8362 104.636 47.9388 103.189 49.5007C101.923 50.8824 100.296 51.5432 98.3672 51.5432C96.3179 51.5432 94.8111 50.8223 93.9069 49.3205H93.8467V57.5506H90.3508V40.7299C90.3508 39.0478 90.2905 37.3658 90.2302 35.6236H93.3042L93.485 38.0866H93.5453C94.6905 36.2243 96.4384 35.3232 98.8494 35.3232C100.718 35.3232 102.225 36.0441 103.49 37.4859C104.756 38.9277 105.359 40.85 105.359 43.1929ZM101.863 43.3131C101.863 41.8112 101.501 40.5497 100.838 39.5885C100.115 38.5672 99.0905 38.0266 97.8247 38.0266C96.9809 38.0266 96.1973 38.3269 95.4741 38.8676C94.7508 39.4083 94.3289 40.1892 94.0878 41.0903C93.9672 41.5109 93.9069 41.8713 93.9069 42.1717V44.7548C93.9069 45.8963 94.2686 46.8574 94.9316 47.6384C95.6549 48.4194 96.559 48.7798 97.6439 48.7798C98.97 48.7798 99.9946 48.2992 100.718 47.278C101.441 46.3168 101.863 44.9951 101.863 43.3131Z" fill="white"/>
<path d="M123.381 43.1929C123.381 45.8362 122.657 47.9388 121.211 49.5007C119.945 50.8824 118.318 51.5432 116.389 51.5432C114.34 51.5432 112.833 50.8223 111.929 49.3205H111.868V57.5506H108.372V40.7299C108.372 39.0478 108.312 37.3658 108.252 35.6236H111.326L111.507 38.0866H111.567C112.712 36.2243 114.46 35.3232 116.871 35.3232C118.74 35.3232 120.246 36.0441 121.512 37.4859C122.718 38.9277 123.381 40.85 123.381 43.1929ZM119.825 43.3131C119.825 41.8112 119.463 40.5497 118.8 39.5885C118.077 38.5672 117.052 38.0266 115.786 38.0266C114.942 38.0266 114.159 38.3269 113.436 38.8676C112.712 39.4083 112.29 40.1892 112.049 41.0903C111.929 41.5109 111.868 41.8713 111.868 42.1717V44.7548C111.868 45.8963 112.23 46.8574 112.893 47.6384C113.616 48.4194 114.52 48.7798 115.605 48.7798C116.931 48.7798 117.956 48.2992 118.679 47.278C119.463 46.3168 119.825 44.9951 119.825 43.3131Z" fill="white"/>
<path d="M143.452 45.1157C143.452 46.978 142.789 48.4799 141.523 49.6213C140.137 50.8828 138.148 51.4836 135.616 51.4836C133.266 51.4836 131.397 51.0631 130.011 50.1619L130.795 47.2784C132.301 48.1795 133.989 48.6601 135.797 48.6601C137.123 48.6601 138.148 48.3597 138.871 47.759C139.595 47.1583 139.956 46.3773 139.956 45.4161C139.956 44.515 139.655 43.7941 139.052 43.1934C138.449 42.5926 137.485 42.052 136.038 41.5113C132.241 40.1296 130.373 38.027 130.373 35.3237C130.373 33.5215 131.036 32.0797 132.362 30.9383C133.688 29.7969 135.436 29.2562 137.666 29.2562C139.655 29.2562 141.282 29.6167 142.608 30.2775L141.764 33.101C140.559 32.4401 139.173 32.0797 137.605 32.0797C136.4 32.0797 135.436 32.3801 134.773 32.9808C134.17 33.5215 133.929 34.1823 133.929 34.9632C133.929 35.8043 134.23 36.5252 134.953 37.0658C135.556 37.6065 136.581 38.1472 138.088 38.7479C139.956 39.4688 141.342 40.3699 142.186 41.3911C143.03 42.3523 143.452 43.6139 143.452 45.1157Z" fill="white"/>
<path d="M154.964 38.2071H151.107V45.7764C151.107 47.6988 151.77 48.66 153.156 48.66C153.759 48.66 154.301 48.5999 154.723 48.4798L154.844 51.123C154.181 51.3633 153.277 51.4835 152.131 51.4835C150.745 51.4835 149.66 51.0629 148.937 50.2219C148.153 49.3809 147.792 47.9992 147.792 46.0167V38.147H145.501V35.5639H147.792V32.6803L151.227 31.6591V35.5639H155.085V38.2071H154.964Z" fill="white"/>
<path d="M172.263 43.2535C172.263 45.6565 171.6 47.6389 170.214 49.1408C168.767 50.7027 166.838 51.5437 164.488 51.5437C162.197 51.5437 160.389 50.7627 159.003 49.2609C157.616 47.759 156.953 45.8367 156.953 43.4938C156.953 41.0908 157.677 39.1084 159.063 37.5465C160.449 35.9846 162.378 35.2637 164.729 35.2637C167.019 35.2637 168.888 36.0446 170.274 37.5465C171.6 39.0483 172.263 40.9106 172.263 43.2535ZM168.647 43.3737C168.647 41.9319 168.345 40.7304 167.742 39.6491C167.019 38.3875 165.994 37.7868 164.608 37.7868C163.222 37.7868 162.137 38.3875 161.414 39.6491C160.811 40.6703 160.51 41.9319 160.51 43.4337C160.51 44.8755 160.811 46.077 161.414 47.1583C162.137 48.4199 163.222 49.0206 164.548 49.0206C165.874 49.0206 166.899 48.3598 167.682 47.0982C168.285 46.077 168.647 44.8154 168.647 43.3737Z" fill="white"/>
<path d="M183.534 38.6277C183.172 38.5676 182.811 38.5076 182.449 38.5076C181.244 38.5076 180.279 38.9881 179.616 39.8893C179.014 40.7303 178.772 41.7515 178.772 42.953V51.1231H175.277L175.337 40.4299C175.337 38.6277 175.277 37.0057 175.216 35.5039H178.23L178.351 38.5076H178.471C178.833 37.4863 179.435 36.6453 180.219 36.0445C181.003 35.5039 181.846 35.2035 182.751 35.2035C183.052 35.2035 183.353 35.2035 183.594 35.2636V38.6277H183.534Z" fill="white"/>
<path d="M199.085 42.6528C199.085 43.2535 199.025 43.7942 198.965 44.2147H188.537C188.598 45.7766 189.08 46.918 190.044 47.759C190.948 48.4799 192.033 48.8404 193.48 48.8404C195.047 48.8404 196.433 48.6001 197.699 48.1195L198.241 50.5224C196.735 51.1833 194.987 51.4836 192.998 51.4836C190.587 51.4836 188.658 50.7627 187.271 49.381C185.885 47.9393 185.222 46.077 185.222 43.674C185.222 41.3311 185.885 39.3487 187.151 37.7868C188.477 36.1047 190.345 35.2637 192.636 35.2637C194.866 35.2637 196.614 36.1047 197.759 37.7868C198.603 39.0483 199.085 40.7304 199.085 42.6528ZM195.77 41.7516C195.77 40.7304 195.589 39.8293 195.107 39.1084C194.504 38.1472 193.6 37.6666 192.335 37.6666C191.189 37.6666 190.285 38.1472 189.562 39.0483C188.959 39.7692 188.658 40.6703 188.537 41.7516H195.77Z" fill="white"/>
<path d="M79.9233 16.2801C79.9233 18.2025 79.3206 19.6443 78.1754 20.6055C77.0904 21.5066 75.5836 21.9271 73.6548 21.9271C72.6904 21.9271 71.8466 21.867 71.1836 21.8069V11.3541C72.0877 11.2339 73.0521 11.1138 74.137 11.1138C76.0055 11.1138 77.3918 11.5343 78.3562 12.3152C79.3809 13.2764 79.9233 14.5981 79.9233 16.2801ZM78.1151 16.3402C78.1151 15.0787 77.8137 14.1775 77.1507 13.5167C76.4877 12.8559 75.5233 12.4955 74.2576 12.4955C73.7151 12.4955 73.2329 12.5555 72.8713 12.6156V20.5454C73.0521 20.6055 73.474 20.6055 74.0165 20.6055C75.3425 20.6055 76.3069 20.245 77.0302 19.5241C77.7535 18.7432 78.1151 17.7219 78.1151 16.3402Z" fill="white"/>
<path d="M89.5069 17.9621C89.5069 19.1636 89.1452 20.1247 88.4822 20.8456C87.7589 21.6266 86.8548 21.987 85.6493 21.987C84.5041 21.987 83.6 21.6266 82.937 20.8456C82.274 20.1247 81.9124 19.1636 81.9124 18.0222C81.9124 16.8207 82.274 15.8595 82.937 15.0785C83.6 14.2976 84.5644 13.9371 85.7096 13.9371C86.8548 13.9371 87.7589 14.2976 88.4219 15.0785C89.1452 15.8595 89.5069 16.8207 89.5069 17.9621ZM87.6987 18.0222C87.6987 17.3013 87.5178 16.7005 87.2165 16.2199C86.8548 15.6192 86.3726 15.3188 85.7096 15.3188C85.0466 15.3188 84.5041 15.6192 84.1425 16.2199C83.8411 16.7005 83.6603 17.3613 83.6603 18.0822C83.6603 18.8031 83.8411 19.4039 84.1425 19.8844C84.5041 20.4852 85.0466 20.7856 85.7096 20.7856C86.3726 20.7856 86.8548 20.4852 87.2165 19.8244C87.5781 19.3438 87.6987 18.683 87.6987 18.0222Z" fill="white"/>
<path d="M102.285 14.1776L99.8742 21.807H98.3071L97.2824 18.5029C97.0413 17.6619 96.8002 16.8209 96.6797 16.0399H96.6194C96.4989 16.8809 96.2578 17.722 96.0167 18.5029L94.9317 21.807H93.3646L91.0742 14.1776H92.8222L93.666 17.8421C93.8468 18.6832 94.0276 19.5242 94.2085 20.3052H94.2687C94.3893 19.6443 94.6304 18.8634 94.9317 17.8421L96.0167 14.1776H97.403L98.4276 17.782C98.6687 18.6832 98.9098 19.4641 99.0304 20.3052H99.0906C99.2112 19.5242 99.392 18.6832 99.6331 17.782L100.537 14.1776H102.285Z" fill="white"/>
<path d="M111.145 21.8069H109.458V17.4215C109.458 16.0999 108.915 15.379 107.89 15.379C107.408 15.379 106.986 15.5592 106.685 15.9197C106.384 16.2801 106.203 16.7006 106.203 17.2413V21.8069H104.515V16.3402C104.515 15.6794 104.515 14.9585 104.455 14.1775H105.962L106.022 15.379H106.082C106.263 15.0186 106.564 14.7182 106.986 14.4779C107.469 14.1775 107.951 14.0574 108.553 14.0574C109.277 14.0574 109.879 14.2977 110.362 14.7783C110.964 15.3189 111.266 16.22 111.266 17.3014V21.8069H111.145Z" fill="white"/>
<path d="M115.846 10.6929H114.159V21.8666H115.846V10.6929Z" fill="white"/>
<path d="M125.912 17.9621C125.912 19.1636 125.551 20.1247 124.888 20.8456C124.164 21.6266 123.26 21.987 122.055 21.987C120.91 21.987 120.006 21.6266 119.343 20.8456C118.68 20.1247 118.318 19.1636 118.318 18.0222C118.318 16.8207 118.68 15.8595 119.343 15.0785C120.006 14.2976 120.97 13.9371 122.115 13.9371C123.26 13.9371 124.164 14.2976 124.827 15.0785C125.551 15.8595 125.912 16.8207 125.912 17.9621ZM124.104 18.0222C124.104 17.3013 123.923 16.7005 123.622 16.2199C123.26 15.6192 122.778 15.3188 122.115 15.3188C121.452 15.3188 120.91 15.6192 120.548 16.2199C120.247 16.7005 120.066 17.3613 120.066 18.0822C120.066 18.8031 120.247 19.4039 120.548 19.8844C120.91 20.4852 121.452 20.7856 122.115 20.7856C122.778 20.7856 123.26 20.4852 123.622 19.8244C123.984 19.3438 124.104 18.683 124.104 18.0222Z" fill="white"/>
<path d="M134.17 21.8068H132.663L132.542 20.9057H132.482C131.94 21.6266 131.216 21.987 130.252 21.987C129.529 21.987 128.926 21.7467 128.504 21.2662C128.082 20.8456 127.901 20.305 127.901 19.7042C127.901 18.743 128.263 18.0822 129.107 17.5416C129.89 17.061 130.975 16.8207 132.422 16.8207V16.7005C132.422 15.6793 131.879 15.1987 130.855 15.1987C130.071 15.1987 129.408 15.3789 128.866 15.7394L128.504 14.5979C129.227 14.1774 130.071 13.9371 131.156 13.9371C133.145 13.9371 134.17 15.0185 134.17 17.121V19.9445C134.049 20.7856 134.11 21.3863 134.17 21.8068ZM132.422 19.2236V18.0222C130.553 17.9621 129.589 18.5027 129.589 19.5841C129.589 20.0046 129.71 20.305 129.89 20.4852C130.131 20.6654 130.373 20.7856 130.734 20.7856C131.096 20.7856 131.458 20.6654 131.759 20.4251C132.06 20.1848 132.301 19.8844 132.362 19.524L132.422 19.2236Z" fill="white"/>
<path d="M143.874 21.8069H142.367L142.307 20.6054H142.247C141.764 21.5666 140.921 21.9871 139.775 21.9871C138.871 21.9871 138.088 21.6267 137.485 20.9058C136.882 20.1849 136.581 19.2237 136.581 18.0823C136.581 16.8208 136.882 15.8596 137.605 15.0786C138.268 14.3578 139.052 13.9973 139.956 13.9973C140.981 13.9973 141.704 14.3578 142.126 15.0186H142.186V10.6332H143.874V19.7644C143.814 20.5454 143.814 21.2062 143.874 21.8069ZM142.126 18.623V17.3615C142.126 17.1212 142.126 16.9409 142.066 16.8208C141.945 16.4003 141.764 16.0398 141.463 15.7995C141.162 15.4992 140.74 15.379 140.318 15.379C139.655 15.379 139.173 15.6193 138.811 16.16C138.449 16.6406 138.268 17.3014 138.268 18.0823C138.268 18.8633 138.449 19.464 138.811 19.9446C139.173 20.4252 139.655 20.7256 140.318 20.7256C140.86 20.7256 141.342 20.5454 141.644 20.1249C141.945 19.6443 142.126 19.1637 142.126 18.623Z" fill="white"/>
<path d="M158.46 17.9621C158.46 19.1636 158.099 20.1247 157.436 20.8456C156.712 21.6266 155.808 21.987 154.603 21.987C153.458 21.987 152.553 21.6266 151.89 20.8456C151.227 20.1247 150.866 19.1636 150.866 18.0222C150.866 16.8207 151.227 15.8595 151.89 15.0785C152.553 14.2976 153.518 13.9371 154.663 13.9371C155.808 13.9371 156.712 14.2976 157.375 15.0785C158.159 15.8595 158.46 16.8207 158.46 17.9621ZM156.712 18.0222C156.712 17.3013 156.531 16.7005 156.23 16.2199C155.868 15.6192 155.386 15.3188 154.723 15.3188C154.06 15.3188 153.518 15.6192 153.156 16.2199C152.855 16.7005 152.674 17.3613 152.674 18.0822C152.674 18.8031 152.855 19.4039 153.156 19.8844C153.518 20.4852 154.06 20.7856 154.723 20.7856C155.386 20.7856 155.868 20.4852 156.23 19.8244C156.531 19.3438 156.712 18.683 156.712 18.0222Z" fill="white"/>
<path d="M167.682 21.8069H165.994V17.4215C165.994 16.0999 165.452 15.379 164.427 15.379C163.945 15.379 163.523 15.5592 163.222 15.9197C162.92 16.2801 162.74 16.7006 162.74 17.2413V21.8069H161.052V16.3402C161.052 15.6794 161.052 14.9585 160.992 14.1775H162.499L162.559 15.379H162.619C162.8 15.0186 163.101 14.7182 163.523 14.4779C164.005 14.1775 164.488 14.0574 165.09 14.0574C165.814 14.0574 166.416 14.2977 166.899 14.7783C167.501 15.3189 167.803 16.22 167.803 17.3014V21.8069H167.682Z" fill="white"/>
<path d="M179.134 15.4389H177.266V19.1635C177.266 20.1247 177.627 20.6052 178.29 20.6052C178.592 20.6052 178.833 20.6053 179.074 20.5452L179.134 21.8067C178.773 21.9269 178.351 21.987 177.808 21.987C177.145 21.987 176.603 21.8067 176.241 21.3862C175.879 20.9657 175.699 20.3049 175.699 19.3437V15.499H174.493V14.2374H175.638V12.8557L177.326 12.3751V14.2975H179.195L179.134 15.4389Z" fill="white"/>
<path d="M188.175 21.8065H186.488V17.4812C186.488 16.0995 185.945 15.4387 184.92 15.4387C184.137 15.4387 183.594 15.8592 183.293 16.6402C183.233 16.8204 183.233 17.0006 183.233 17.2409V21.8666H181.545V10.6929H183.233V15.3186H183.293C183.836 14.4775 184.619 14.057 185.584 14.057C186.307 14.057 186.849 14.2973 187.331 14.7779C187.934 15.3786 188.175 16.2197 188.175 17.3611V21.8065Z" fill="white"/>
<path d="M197.518 17.6618C197.518 17.9622 197.518 18.2025 197.457 18.4428H192.334C192.334 19.2237 192.575 19.7644 193.057 20.1849C193.479 20.5453 194.022 20.7256 194.745 20.7256C195.529 20.7256 196.192 20.6054 196.794 20.3651L197.035 21.5666C196.312 21.867 195.468 22.0472 194.444 22.0472C193.238 22.0472 192.334 21.6867 191.611 21.0259C190.948 20.305 190.586 19.4039 190.586 18.2025C190.586 17.0611 190.888 16.0999 191.551 15.3189C192.214 14.4779 193.118 14.1174 194.263 14.1174C195.348 14.1174 196.192 14.5379 196.794 15.3189C197.277 15.8596 197.518 16.7006 197.518 17.6618ZM195.89 17.1812C195.89 16.7006 195.77 16.22 195.589 15.8596C195.288 15.379 194.866 15.1387 194.203 15.1387C193.66 15.1387 193.178 15.379 192.816 15.8596C192.515 16.22 192.394 16.6405 192.334 17.1812H195.89Z" fill="white"/>
</svg>
