<svg width="126" height="26" viewBox="0 0 126 26" fill="none" xmlns="http://www.w3.org/2000/svg">
<path fill-rule="evenodd" clip-rule="evenodd" d="M121.773 12.797C119.604 15.683 117.95 18.936 115.655 21.71C115.378 21.734 114.816 21.774 114.539 21.789C112.814 19.048 115.758 16.306 116.882 13.908C110.827 16.098 105.223 19.607 98.8519 20.831C98.5669 19.52 98.2349 17.793 99.5569 16.922C101.63 15.906 104.036 15.683 105.991 14.395C108.508 12.653 111.5 11.854 114.064 10.199C111.99 10.151 109.917 10.311 107.851 10.143C106.118 9.48796 106.529 6.82596 107.891 5.98596C110.526 5.64296 113.201 5.89796 115.845 5.72296C119.177 5.72296 122.588 4.09196 125.746 5.84196C125.334 8.60796 123.221 10.559 121.773 12.797ZM74.2139 24.883C73.1139 23.516 74.4279 21.214 76.1449 21.366C79.0889 21.119 82.0729 21.094 84.9619 20.399C86.6639 20.175 89.1729 18.904 89.9639 21.246C89.3709 23.244 86.9959 23.253 85.3659 23.804C81.7169 24.5 77.9019 25.459 74.2139 24.883ZM58.9069 24.332C55.3459 24.324 51.6809 24.204 48.3569 22.797C48.7679 21.734 49.0059 20.439 50.1299 19.88C53.3189 20.071 56.4459 20.894 59.6509 20.863C61.7799 21.014 64.7079 20.151 65.5949 22.845C63.7349 24.452 61.1939 24.252 58.9069 24.332ZM31.2059 19.408C28.3089 18.385 25.2069 17.681 22.7929 15.666C23.3069 14.691 23.9089 12.789 25.4039 13.452C29.3619 15.123 33.4459 16.434 37.5609 17.641C39.0329 17.889 39.0329 20.311 37.5299 20.655C35.3529 20.799 33.2559 20.023 31.2059 19.408ZM10.7619 10.615C6.93188 8.61596 2.48388 6.41796 0.86088 2.09396C0.15688 0.374964 2.88688 -0.720036 3.73388 0.813964C6.30588 4.33196 10.3269 6.10596 13.7149 8.62396C15.3849 10.551 12.1549 11.862 10.7619 10.615Z" fill="#7828E6"/>
</svg>
