<svg width="58" height="58" viewBox="0 0 58 58" fill="none" xmlns="http://www.w3.org/2000/svg">
<g filter="url(#filter0_d_1_563)">
<path fill-rule="evenodd" clip-rule="evenodd" d="M29 0C42.807 0 54 11.193 54 25C54 38.807 42.807 50 29 50C15.193 50 4 38.807 4 25C4 11.193 15.193 0 29 0Z" fill="#E63A28"/>
<path fill-rule="evenodd" clip-rule="evenodd" d="M42.006 21.09C41.879 20.903 41.688 20.794 41.489 20.794H38.957C38.333 18.828 37.52 16.897 36.597 16.169C33.399 13.651 24.911 13.651 21.713 16.169C20.789 16.897 19.977 18.828 19.349 20.794H16.82C16.619 20.794 16.43 20.903 16.303 21.09C16.176 21.276 16.128 21.517 16.167 21.755L16.544 23.923C16.605 24.292 16.878 24.556 17.194 24.556H17.944C17.22 25.555 16.868 26.814 16.865 28.069C16.859 29.624 17.353 31.027 18.257 32.022C18.267 32.03 18.277 32.042 18.286 32.049V35.088C18.286 35.744 18.732 36.281 19.284 36.281H21.618C22.168 36.281 22.616 35.744 22.616 35.088V33.867H35.693V35.088C35.693 35.744 36.139 36.281 36.692 36.281H39.025C39.575 36.281 40.024 35.744 40.024 35.088V32.107C40.979 31.062 41.437 29.62 41.444 28.178C41.448 26.881 41.08 25.575 40.312 24.556H41.112C41.428 24.556 41.7 24.292 41.765 23.923L42.14 21.755C42.178 21.517 42.13 21.276 42.006 21.09ZM22.811 18.163C25.359 16.158 32.95 16.158 35.495 18.163C35.993 18.552 36.629 20.122 37.212 22.046H21.095C21.677 20.122 22.313 18.552 22.811 18.163ZM21.787 30.72C20.705 30.72 19.824 29.667 19.824 28.369C19.824 27.074 20.705 26.022 21.787 26.022C22.873 26.022 23.754 27.074 23.754 28.369C23.754 29.667 22.873 30.72 21.787 30.72ZM36.545 30.72C35.463 30.72 34.582 29.667 34.582 28.369C34.582 27.074 35.463 26.022 36.545 26.022C37.631 26.022 38.512 27.074 38.512 28.369C38.512 29.667 37.631 30.72 36.545 30.72Z" fill="white"/>
</g>
<defs>
<filter id="filter0_d_1_563" x="0" y="0" width="58" height="58" filterUnits="userSpaceOnUse" color-interpolation-filters="sRGB">
<feFlood flood-opacity="0" result="BackgroundImageFix"/>
<feColorMatrix in="SourceAlpha" type="matrix" values="0 0 0 0 0 0 0 0 0 0 0 0 0 0 0 0 0 0 127 0" result="hardAlpha"/>
<feOffset dy="4"/>
<feGaussianBlur stdDeviation="2"/>
<feComposite in2="hardAlpha" operator="out"/>
<feColorMatrix type="matrix" values="0 0 0 0 0 0 0 0 0 0 0 0 0 0 0 0 0 0 0.25 0"/>
<feBlend mode="normal" in2="BackgroundImageFix" result="effect1_dropShadow_1_563"/>
<feBlend mode="normal" in="SourceGraphic" in2="effect1_dropShadow_1_563" result="shape"/>
</filter>
</defs>
</svg>
