<svg width="216" height="226" viewBox="0 0 216 226" fill="none" xmlns="http://www.w3.org/2000/svg">
<path fill-rule="evenodd" clip-rule="evenodd" d="M6.12149 213.835C2.74354 213.835 0.00463867 216.557 0.00463867 219.917C0.00463867 223.275 2.74354 225.998 6.12149 225.998C9.50044 225.998 12.2404 223.275 12.2404 219.917C12.2404 216.557 9.50044 213.835 6.12149 213.835ZM46.325 213.835C42.9461 213.835 40.2071 216.557 40.2071 219.917C40.2071 223.275 42.9461 225.998 46.325 225.998C49.704 225.998 52.4428 223.275 52.4428 219.917C52.4428 216.557 49.704 213.835 46.325 213.835ZM86.5274 213.835C83.1485 213.835 80.4095 216.557 80.4095 219.917C80.4095 223.275 83.1485 225.998 86.5274 225.998C89.9064 225.998 92.6453 223.275 92.6453 219.917C92.6453 216.557 89.9064 213.835 86.5274 213.835ZM128.478 213.835C125.099 213.835 122.36 216.557 122.36 219.917C122.36 223.275 125.099 225.998 128.478 225.998C131.857 225.998 134.596 223.275 134.596 219.917C134.596 216.557 131.857 213.835 128.478 213.835ZM168.68 213.835C165.302 213.835 162.562 216.557 162.562 219.917C162.562 223.275 165.302 225.998 168.68 225.998C172.059 225.998 174.798 223.275 174.798 219.917C174.798 216.557 172.059 213.835 168.68 213.835ZM208.884 213.835C205.505 213.835 202.765 216.557 202.765 219.917C202.765 223.275 205.505 225.998 208.884 225.998C212.261 225.998 215.001 223.275 215.001 219.917C215.001 216.557 212.261 213.835 208.884 213.835ZM6.12149 171.268C2.74354 171.268 0.00463867 173.992 0.00463867 177.35C0.00463867 180.709 2.74354 183.431 6.12149 183.431C9.50044 183.431 12.2404 180.709 12.2404 177.35C12.2404 173.992 9.50044 171.268 6.12149 171.268ZM46.325 171.268C42.9461 171.268 40.2071 173.992 40.2071 177.35C40.2071 180.709 42.9461 183.431 46.325 183.431C49.704 183.431 52.4428 180.709 52.4428 177.35C52.4428 173.992 49.704 171.268 46.325 171.268ZM86.5274 171.268C83.1485 171.268 80.4095 173.992 80.4095 177.35C80.4095 180.709 83.1485 183.431 86.5274 183.431C89.9064 183.431 92.6453 180.709 92.6453 177.35C92.6453 173.992 89.9064 171.268 86.5274 171.268ZM128.478 171.268C125.099 171.268 122.36 173.992 122.36 177.35C122.36 180.709 125.099 183.431 128.478 183.431C131.857 183.431 134.596 180.709 134.596 177.35C134.596 173.992 131.857 171.268 128.478 171.268ZM168.68 171.268C165.302 171.268 162.562 173.992 162.562 177.35C162.562 180.709 165.302 183.431 168.68 183.431C172.059 183.431 174.798 180.709 174.798 177.35C174.798 173.992 172.059 171.268 168.68 171.268ZM208.884 171.268C205.505 171.268 202.765 173.992 202.765 177.35C202.765 180.709 205.505 183.431 208.884 183.431C212.261 183.431 215.001 180.709 215.001 177.35C215.001 173.992 212.261 171.268 208.884 171.268ZM6.12149 128.701C2.74354 128.701 0.00463867 131.424 0.00463867 134.783C0.00463867 138.141 2.74354 140.862 6.12149 140.862C9.50044 140.862 12.2404 138.141 12.2404 134.783C12.2404 131.424 9.50044 128.701 6.12149 128.701ZM46.325 128.701C42.9461 128.701 40.2071 131.424 40.2071 134.783C40.2071 138.141 42.9461 140.862 46.325 140.862C49.704 140.862 52.4428 138.141 52.4428 134.783C52.4428 131.424 49.704 128.701 46.325 128.701ZM86.5274 128.701C83.1485 128.701 80.4095 131.424 80.4095 134.783C80.4095 138.141 83.1485 140.862 86.5274 140.862C89.9064 140.862 92.6453 138.141 92.6453 134.783C92.6453 131.424 89.9064 128.701 86.5274 128.701ZM128.478 128.701C125.099 128.701 122.36 131.424 122.36 134.783C122.36 138.141 125.099 140.862 128.478 140.862C131.857 140.862 134.596 138.141 134.596 134.783C134.596 131.424 131.857 128.701 128.478 128.701ZM168.68 128.701C165.302 128.701 162.562 131.424 162.562 134.783C162.562 138.141 165.302 140.862 168.68 140.862C172.059 140.862 174.798 138.141 174.798 134.783C174.798 131.424 172.059 128.701 168.68 128.701ZM208.884 128.701C205.505 128.701 202.765 131.424 202.765 134.783C202.765 138.141 205.505 140.862 208.884 140.862C212.261 140.862 215.001 138.141 215.001 134.783C215.001 131.424 212.261 128.701 208.884 128.701ZM6.12149 86.1323C2.74354 86.1323 0.00463867 88.8554 0.00463867 92.2144C0.00463867 95.5734 2.74354 98.2954 6.12149 98.2954C9.50044 98.2954 12.2404 95.5734 12.2404 92.2144C12.2404 88.8554 9.50044 86.1323 6.12149 86.1323ZM46.325 86.1323C42.9461 86.1323 40.2071 88.8554 40.2071 92.2144C40.2071 95.5734 42.9461 98.2954 46.325 98.2954C49.704 98.2954 52.4428 95.5734 52.4428 92.2144C52.4428 88.8554 49.704 86.1323 46.325 86.1323ZM86.5274 86.1323C83.1485 86.1323 80.4095 88.8554 80.4095 92.2144C80.4095 95.5734 83.1485 98.2954 86.5274 98.2954C89.9064 98.2954 92.6453 95.5734 92.6453 92.2144C92.6453 88.8554 89.9064 86.1323 86.5274 86.1323ZM128.478 86.1323C125.099 86.1323 122.36 88.8554 122.36 92.2144C122.36 95.5734 125.099 98.2954 128.478 98.2954C131.857 98.2954 134.596 95.5734 134.596 92.2144C134.596 88.8554 131.857 86.1323 128.478 86.1323ZM168.68 86.1323C165.302 86.1323 162.562 88.8554 162.562 92.2144C162.562 95.5734 165.302 98.2954 168.68 98.2954C172.059 98.2954 174.798 95.5734 174.798 92.2144C174.798 88.8554 172.059 86.1323 168.68 86.1323ZM208.884 86.1323C205.505 86.1323 202.765 88.8554 202.765 92.2144C202.765 95.5734 205.505 98.2954 208.884 98.2954C212.261 98.2954 215.001 95.5734 215.001 92.2144C215.001 88.8554 212.261 86.1323 208.884 86.1323ZM6.12149 43.5664C2.74354 43.5664 0.00463867 46.2885 0.00463867 49.6465C0.00463867 53.0055 2.74354 55.7275 6.12149 55.7275C9.50044 55.7275 12.2404 53.0055 12.2404 49.6465C12.2404 46.2885 9.50044 43.5664 6.12149 43.5664ZM46.325 43.5664C42.9461 43.5664 40.2071 46.2885 40.2071 49.6465C40.2071 53.0055 42.9461 55.7275 46.325 55.7275C49.704 55.7275 52.4428 53.0055 52.4428 49.6465C52.4428 46.2885 49.704 43.5664 46.325 43.5664ZM86.5274 43.5664C83.1485 43.5664 80.4095 46.2885 80.4095 49.6465C80.4095 53.0055 83.1485 55.7275 86.5274 55.7275C89.9064 55.7275 92.6453 53.0055 92.6453 49.6465C92.6453 46.2885 89.9064 43.5664 86.5274 43.5664ZM128.478 43.5664C125.099 43.5664 122.36 46.2885 122.36 49.6465C122.36 53.0055 125.099 55.7275 128.478 55.7275C131.857 55.7275 134.596 53.0055 134.596 49.6465C134.596 46.2885 131.857 43.5664 128.478 43.5664ZM168.68 43.5664C165.302 43.5664 162.562 46.2885 162.562 49.6465C162.562 53.0055 165.302 55.7275 168.68 55.7275C172.059 55.7275 174.798 53.0055 174.798 49.6465C174.798 46.2885 172.059 43.5664 168.68 43.5664ZM208.884 43.5664C205.505 43.5664 202.765 46.2885 202.765 49.6465C202.765 53.0055 205.505 55.7275 208.884 55.7275C212.261 55.7275 215.001 53.0055 215.001 49.6465C215.001 46.2885 212.261 43.5664 208.884 43.5664ZM6.12149 0.998535C2.74354 0.998535 0.00463867 3.72059 0.00463867 7.07959C0.00463867 10.4376 2.74354 13.1606 6.12149 13.1606C9.50044 13.1606 12.2404 10.4376 12.2404 7.07959C12.2404 3.72059 9.50044 0.998535 6.12149 0.998535ZM46.325 0.998535C42.9461 0.998535 40.2071 3.72059 40.2071 7.07959C40.2071 10.4376 42.9461 13.1606 46.325 13.1606C49.704 13.1606 52.4428 10.4376 52.4428 7.07959C52.4428 3.72059 49.704 0.998535 46.325 0.998535ZM86.5274 0.998535C83.1485 0.998535 80.4095 3.72059 80.4095 7.07959C80.4095 10.4376 83.1485 13.1606 86.5274 13.1606C89.9064 13.1606 92.6453 10.4376 92.6453 7.07959C92.6453 3.72059 89.9064 0.998535 86.5274 0.998535ZM128.478 0.998535C125.099 0.998535 122.36 3.72059 122.36 7.07959C122.36 10.4376 125.099 13.1606 128.478 13.1606C131.857 13.1606 134.596 10.4376 134.596 7.07959C134.596 3.72059 131.857 0.998535 128.478 0.998535ZM168.68 0.998535C165.302 0.998535 162.562 3.72059 162.562 7.07959C162.562 10.4376 165.302 13.1606 168.68 13.1606C172.059 13.1606 174.798 10.4376 174.798 7.07959C174.798 3.72059 172.059 0.998535 168.68 0.998535ZM208.884 0.998535C205.505 0.998535 202.765 3.72059 202.765 7.07959C202.765 10.4376 205.505 13.1606 208.884 13.1606C212.261 13.1606 215.001 10.4376 215.001 7.07959C215.001 3.72059 212.261 0.998535 208.884 0.998535Z" fill="#F1FDFB"/>
</svg>
