<svg width="51" height="52" viewBox="0 0 51 52" fill="none" xmlns="http://www.w3.org/2000/svg">
<path opacity="0.2" fill-rule="evenodd" clip-rule="evenodd" d="M50.2049 23.3998L40.0307 25.3288L43.9648 46.1066C44.0659 46.6384 43.7176 47.1502 43.1872 47.2504L38.3883 48.1608C37.8579 48.262 37.3465 47.9124 37.2464 47.3806C37.1453 46.8498 37.4936 46.3369 38.024 46.2368L41.8631 45.5096L38.1111 25.6924L34.2259 26.4295C33.7265 29.5154 31.5227 32.0564 28.5563 32.9929L28.9977 35.3266L30.8222 34.981C32.6737 34.6295 34.4671 35.8534 34.8184 37.7103L35.4019 40.7882C35.7532 42.6451 34.5322 44.441 32.6797 44.7925L27.1122 45.8482C25.2597 46.1997 23.4672 44.9748 23.1159 43.1179L22.5324 40.04C22.1812 38.1841 23.4021 36.3872 25.2546 36.0357L27.0781 35.6901L26.6368 33.3565C23.5332 33.5718 20.5538 32.0123 18.9615 29.3241L15.0754 30.0613L18.8274 49.8775L22.6665 49.1494C23.197 49.0482 23.7084 49.3978 23.8085 49.9286C23.9096 50.4594 23.5613 50.9723 23.0308 51.0734L18.2319 51.9828C17.7015 52.083 17.1901 51.7345 17.09 51.2036L13.1558 30.4248L2.98155 32.3539C2.45212 32.454 1.94071 32.1055 1.83963 31.5736L1.11103 27.7256C1.01095 27.1947 1.35924 26.6829 1.88867 26.5828L7.31207 25.5542L6.4864 21.1933L1.15907 22.2029C0.629644 22.304 0.118228 21.9545 0.017146 21.4236C-0.0829353 20.8918 0.265348 20.38 0.794778 20.2798L13.369 17.8951C13.8994 17.7949 14.4098 18.1435 14.5109 18.6753C14.611 19.2061 14.2627 19.7179 13.7333 19.8191L8.40596 20.8287L9.23163 25.1896L17.9487 23.537C18.2319 22.0606 18.9225 20.6624 19.9313 19.5407C21.1473 18.1885 22.7366 17.2951 24.5261 16.9556C26.3145 16.6161 28.12 16.8664 29.7463 17.6797C31.0964 18.3548 32.2493 19.4024 33.053 20.6725L41.8882 18.9978L41.0625 14.6369L35.7362 15.6465C35.2057 15.7477 34.6943 15.3981 34.5942 14.8663C34.4932 14.3355 34.8414 13.8236 35.3719 13.7225L47.9451 11.3387C48.4755 11.2376 48.9869 11.5871 49.087 12.119C49.1881 12.6498 48.8398 13.1616 48.3094 13.2628L42.983 14.2724L43.8087 18.6332L49.112 17.6276C49.6425 17.5275 50.1539 17.876 50.254 18.4079L50.9825 22.2559C51.0836 22.7868 50.7354 23.2986 50.2049 23.3998ZM25.6189 37.9597C24.8253 38.11 24.3019 38.8802 24.453 39.6754L25.0355 42.7533C25.1866 43.5495 25.9542 44.0744 26.7489 43.9241L32.3154 42.8685C33.109 42.7182 33.6325 41.948 33.4823 41.1528L32.8989 38.0739C32.7487 37.2787 31.9801 36.7538 31.1865 36.9041L25.6189 37.9597ZM48.5165 19.734L32.7337 22.7267C32.3084 22.8078 31.88 22.5975 31.6819 22.2109C30.4148 19.731 27.6216 18.3618 24.8904 18.8796C22.1581 19.3974 20.0594 21.6951 19.7862 24.4654C19.7442 24.8981 19.4219 25.2507 18.9966 25.3308L3.21374 28.3245L3.57704 30.2486L19.3028 27.2669C19.7392 27.1837 20.1765 27.4061 20.3667 27.8087C21.5967 30.4038 24.424 31.8421 27.2433 31.3072C30.0626 30.7734 32.1683 28.3986 32.3634 25.5341C32.3944 25.0904 32.7197 24.7218 33.1561 24.6387L48.8808 21.657L48.5165 19.734ZM29.1608 41.3741C28.6304 41.4743 28.12 41.1247 28.0189 40.5939C27.9188 40.062 28.2661 39.5502 28.7965 39.4501C29.327 39.3499 29.8384 39.6985 29.9385 40.2303C30.0395 40.7611 29.6912 41.274 29.1608 41.3741ZM23.269 10.3201C26.1694 9.77025 29.0878 10.1939 31.7079 11.5451C32.1883 11.7914 32.3774 12.3824 32.1302 12.8631C31.9871 13.1426 31.7289 13.3229 31.4427 13.3769C31.2365 13.417 31.0163 13.39 30.8152 13.2858C28.5854 12.136 26.1023 11.7764 23.6333 12.2442C21.1653 12.7119 18.9856 13.9569 17.3312 15.8428C16.9749 16.2485 16.3574 16.2885 15.9521 15.931C15.5468 15.5744 15.5067 14.9554 15.863 14.5498C17.8086 12.3323 20.3697 10.87 23.269 10.3201ZM13.6532 12.5977C13.2969 13.0034 12.6794 13.0434 12.2741 12.6859C11.8688 12.3293 11.8297 11.7103 12.185 11.3047C14.8562 8.25987 18.3731 6.2517 22.3563 5.49651C26.3395 4.74132 30.3458 5.32223 33.9447 7.17816C34.4251 7.42555 34.6143 8.01648 34.3671 8.49624C34.2239 8.77568 33.9657 8.95697 33.6795 9.01105C33.4733 9.05011 33.2531 9.02307 33.052 8.91891C29.8444 7.2653 26.2715 6.74748 22.7206 7.41954C19.1697 8.09361 16.0342 9.88443 13.6532 12.5977ZM36.0364 4.40979C35.8302 4.44886 35.6091 4.42081 35.4079 4.31765C31.1705 2.1322 26.4496 1.44712 21.7578 2.33752C17.066 3.22693 12.9236 5.59266 9.77808 9.17732C9.42179 9.58396 8.80429 9.62402 8.39896 9.26646C7.99363 8.90889 7.95359 8.29092 8.30988 7.88427C11.7457 3.9691 16.2703 1.38502 21.3935 0.413489C26.5177 -0.558043 31.6729 0.190137 36.3016 2.5769C36.781 2.82429 36.9702 3.41523 36.724 3.89498C36.5808 4.17442 36.3216 4.35571 36.0364 4.40979Z" fill="#65D45F"/>
</svg>
