<svg width="52" height="50" viewBox="0 0 52 50" fill="none" xmlns="http://www.w3.org/2000/svg">
<path opacity="0.2" fill-rule="evenodd" clip-rule="evenodd" d="M51.7737 25.208L44.8189 46.7723C44.0301 49.2181 41.4073 50.5641 38.9711 49.7735L3.21307 38.1588C0.776817 37.3672 -0.562476 34.7342 0.226341 32.2893L7.18109 10.724C7.96991 8.27919 10.5926 6.93318 13.0289 7.72378L15.2308 8.43932L15.5689 7.38852C16.1293 5.65321 17.9912 4.69749 19.7204 5.25991C21.4486 5.82034 22.4 7.68975 21.8405 9.42606L21.5014 10.4749L26.4797 12.0921L31.1866 7.91292C31.429 7.69675 31.767 7.6257 32.0752 7.72578L44.1518 11.6487C44.4599 11.7488 44.6923 12.005 44.7631 12.3223L46.1383 18.4769L48.7879 19.3375C51.2232 20.1291 52.5625 22.7621 51.7737 25.208ZM19.1559 7.00823C18.3881 6.75905 17.5604 7.18437 17.311 7.95495L16.973 9.00474L19.7593 9.90943L20.0983 8.86063C20.3466 8.08905 19.9248 7.25842 19.1559 7.00823ZM43.0917 13.2369L32.0084 9.63722L28.5021 12.7496L44.1149 17.8204L43.0917 13.2369ZM48.2225 21.0869L12.4645 9.4721C10.9895 8.99374 9.40095 9.80935 8.92327 11.2905L1.96852 32.8548C1.49084 34.3359 2.30259 35.9301 3.77651 36.4095L39.5355 48.0242C41.0104 48.5026 42.599 47.688 43.0767 46.2059L50.0325 24.6426C50.5102 23.1614 49.6984 21.5662 48.2225 21.0869ZM27.8469 41.5223C21.7956 39.5568 18.4669 33.0139 20.4264 26.9383C20.9001 25.4702 21.6431 24.1352 22.6353 22.9723C22.9634 22.587 23.5418 22.542 23.9257 22.8712C24.3097 23.2025 24.3546 23.7819 24.0255 24.1682C23.1918 25.1449 22.5665 26.2688 22.1686 27.5037C20.5202 32.6156 23.3204 38.1187 28.4103 39.773C33.5012 41.4262 38.9841 38.6121 40.6325 33.5013C42.2809 28.3894 39.4807 22.8852 34.3908 21.232C33.1582 20.8317 31.8837 20.6826 30.6043 20.7886C30.1006 20.8317 29.6589 20.4554 29.617 19.95C29.5751 19.4436 29.9501 18.9993 30.4537 18.9573C31.9755 18.8302 33.4903 19.0073 34.9542 19.4827C41.0055 21.4481 44.3342 27.9901 42.3747 34.0667C40.4151 40.1433 33.8981 43.4868 27.8469 41.5223ZM33.7136 23.3306C37.6507 24.6095 39.8177 28.8678 38.5423 32.8217C37.2668 36.7767 33.0256 38.9534 29.0875 37.6734C25.1494 36.3944 22.9833 32.1372 24.2588 28.1822C25.5343 24.2282 29.7755 22.0516 33.7136 23.3306ZM29.6519 35.9251C32.6296 36.8918 35.8358 35.2456 36.8001 32.2553C37.7644 29.2671 36.127 26.0466 33.1492 25.0799C30.1714 24.1132 26.9643 25.7594 26.001 28.7477C25.0367 31.7379 26.6741 34.9574 29.6519 35.9251ZM32.515 27.0474C34.4117 27.6638 35.4548 29.7154 34.8405 31.6198C34.685 32.1032 34.1694 32.3674 33.6877 32.2113C33.2071 32.0552 32.9428 31.5368 33.0993 31.0534C33.4025 30.1137 32.8869 29.1009 31.9505 28.7967C31.4699 28.6406 31.2056 28.1232 31.3622 27.6398C31.5177 27.1565 32.0333 26.8913 32.515 27.0474ZM26.9843 21.8284C26.7699 21.9385 26.5146 21.9585 26.2852 21.8845C26.0558 21.8094 25.8624 21.6433 25.7527 21.4281C25.642 21.213 25.622 20.9568 25.6968 20.7266C25.7706 20.4974 25.9362 20.3013 26.1516 20.1922C26.366 20.0821 26.6203 20.0601 26.8496 20.1352C27.079 20.2092 27.2735 20.3763 27.3832 20.5915C27.4929 20.8077 27.5128 21.0629 27.438 21.293C27.3642 21.5232 27.1987 21.7183 26.9843 21.8284ZM17.7538 19.1134L13.2244 17.6423C12.7437 17.4862 12.4804 16.9678 12.636 16.4844C12.7916 16.002 13.3081 15.7368 13.7888 15.8929L18.3183 17.3641C18.7989 17.5202 19.0622 18.0386 18.9066 18.5219C18.7511 19.0053 18.2345 19.2695 17.7538 19.1134ZM47.9293 6.50586L43.698 8.6765C43.4736 8.79258 43.2233 8.80459 42.9999 8.73254C42.7766 8.66048 42.5821 8.50236 42.4664 8.27719C42.237 7.82485 42.4156 7.27043 42.8653 7.04026L47.0956 4.86862C47.5464 4.63744 48.0978 4.81658 48.3282 5.26892C48.5576 5.72126 48.38 6.27468 47.9293 6.50586ZM40.0082 6.79507C39.8526 7.27744 39.3371 7.54264 38.8554 7.38652C38.3747 7.2304 38.1105 6.71201 38.267 6.22865L39.7719 1.56112C39.9274 1.07775 40.444 0.813554 40.9247 0.969672C41.4064 1.12579 41.6696 1.64418 41.5141 2.12755L40.0082 6.79507ZM35.409 5.98446C35.1846 6.09955 34.9343 6.11256 34.7109 6.0405C34.4885 5.96845 34.293 5.81033 34.1774 5.58416L32.0173 1.33795C31.787 0.885609 31.9655 0.332191 32.4162 0.101016C32.866 -0.130159 33.4175 0.0489765 33.6478 0.500318L35.8088 4.74853C36.0382 5.19987 35.8597 5.75329 35.409 5.98446Z" fill="#D2B92F"/>
</svg>
