<svg width="50" height="52" viewBox="0 0 50 52" fill="none" xmlns="http://www.w3.org/2000/svg">
<path d="M22.3384 3.47989C22.3851 3.97838 22.6086 4.44095 22.9655 4.7774C23.3223 5.11386 23.7869 5.30008 24.2687 5.29974H24.3325C26.7165 5.21655 29.0914 5.64412 31.3097 6.55587C33.528 7.46761 35.5421 8.84403 37.2268 10.5995C38.2336 11.6465 39.1137 12.8174 39.8474 14.0863L38.7507 14.2135C38.3301 14.2629 37.9294 14.4264 37.5888 14.6876C37.2482 14.9488 36.9797 15.2985 36.8101 15.7016C36.6406 16.1048 36.576 16.5472 36.6228 16.9845C36.6697 17.4218 36.8263 17.8386 37.077 18.1931L37.8012 19.2154C37.9221 19.3605 38.0912 19.4527 38.2747 19.4737C38.4582 19.4946 38.6425 19.4427 38.7907 19.3283C38.939 19.2139 39.0401 19.0455 39.074 18.8569C39.1079 18.6682 39.072 18.4732 38.9734 18.3109L38.2505 17.29C38.152 17.1513 38.0902 16.9881 38.0714 16.8167C38.0526 16.6454 38.0774 16.4719 38.1433 16.3137C38.2093 16.1555 38.314 16.018 38.4472 15.9151C38.5803 15.8122 38.737 15.7475 38.9018 15.7274L41.0938 15.4728C41.2121 15.4593 41.3254 15.416 41.4239 15.3466C41.5224 15.2773 41.6032 15.1841 41.6593 15.075C41.7153 14.9659 41.745 14.8443 41.7456 14.7206C41.7463 14.5969 41.7179 14.4749 41.663 14.3652C40.0212 11.0726 37.5163 8.33058 34.438 6.45624C31.3598 4.5819 27.8341 3.65186 24.2687 3.77372C24.1486 3.77949 24.0311 3.73699 23.9404 3.65506C23.8497 3.57312 23.7928 3.45802 23.7816 3.33365L23.6656 2.07166C23.6597 2.0054 23.6668 1.93857 23.6865 1.87525C23.7062 1.81193 23.7381 1.75344 23.7803 1.70336C23.822 1.65401 23.873 1.61403 23.9301 1.58586C23.9872 1.55769 24.0492 1.54192 24.1124 1.53951C28.3227 1.38265 32.4816 2.54093 36.0526 4.86493C39.6236 7.18893 42.4429 10.572 44.1468 14.5778C44.2092 14.7266 44.3159 14.8506 44.4512 14.9318C44.5864 15.0129 44.7431 15.0469 44.8983 15.0287L47.4628 14.7321C47.628 14.7124 47.7953 14.7384 47.9477 14.8074C48.1001 14.8765 48.2323 14.9861 48.3309 15.1253C48.4295 15.2645 48.491 15.4283 48.5092 15.6001C48.5274 15.7719 48.5016 15.9457 48.4345 16.1038L44.9842 24.3067C44.9179 24.4652 44.8126 24.6028 44.6788 24.7055C44.545 24.8081 44.3876 24.8723 44.2223 24.8915C44.0571 24.9108 43.8899 24.8844 43.7376 24.815C43.5853 24.7456 43.4533 24.6356 43.3549 24.4963L40.6979 20.7496C40.5795 20.5961 40.4086 20.4961 40.221 20.4706C40.0333 20.445 39.8434 20.4959 39.691 20.6126C39.5386 20.7292 39.4355 20.9026 39.4032 21.0964C39.3709 21.2903 39.412 21.4896 39.5178 21.6528L42.1748 25.3994C42.3964 25.7168 42.6873 25.975 43.0235 26.1527C43.3598 26.3304 43.7318 26.4226 44.109 26.4218C44.2002 26.4218 44.2926 26.4218 44.3851 26.4055C44.8069 26.3588 45.209 26.1963 45.5503 25.9345C45.8916 25.6727 46.1597 25.3212 46.3271 24.916L49.7773 16.7131C49.947 16.3102 50.0117 15.8679 49.9648 15.4307C49.918 14.9935 49.7614 14.5768 49.5106 14.2225C49.2598 13.8682 48.9237 13.5887 48.5362 13.4122C48.1486 13.2357 47.7232 13.1684 47.3026 13.2169L45.2669 13.4526C43.3902 9.29672 40.3789 5.80679 36.608 3.41757C32.837 1.02834 28.4733 -0.154578 24.0603 0.0161948C23.7975 0.0265825 23.5394 0.0926321 23.302 0.210296C23.0646 0.32796 22.8527 0.494763 22.6795 0.700495C22.5062 0.906227 22.3752 1.14656 22.2944 1.40677C22.2135 1.66699 22.1847 1.94162 22.2095 2.21384L22.3384 3.47989Z" fill="black"/>
<path d="M27.659 48.5241C27.6109 48.0142 27.3782 47.5425 27.0078 47.2045C26.6375 46.8665 26.1574 46.6877 25.6649 46.7042C22.5615 46.8037 19.4886 46.0422 16.7621 44.498C14.0355 42.9538 11.7538 40.6825 10.1513 37.9177L11.2467 37.7904C11.6676 37.7417 12.0687 37.5786 12.4097 37.3175C12.7507 37.0565 13.0196 36.7067 13.1894 36.3034C13.3592 35.9001 13.4238 35.4574 13.3768 35.0198C13.3298 34.5823 13.1728 34.1653 12.9217 33.8108L7.80693 26.6018C7.55596 26.247 7.21951 25.9672 6.83144 25.7907C6.44338 25.6141 6.0174 25.5469 5.59642 25.5959C5.17544 25.6449 4.77431 25.8084 4.43343 26.0698C4.09255 26.3313 3.82396 26.6815 3.65469 27.0852L0.204488 35.2881C0.0349109 35.6912 -0.0296991 36.1335 0.0171481 36.5707C0.0639954 37.0079 0.220652 37.4246 0.471386 37.779C0.72212 38.1334 1.05811 38.4129 1.44563 38.5896C1.83315 38.7663 2.25856 38.8339 2.67915 38.7857L4.71229 38.5487C4.83385 38.8195 4.96106 39.0876 5.09391 39.353C5.1832 39.5326 5.33745 39.6679 5.52272 39.7292C5.70799 39.7906 5.90911 39.7729 6.08182 39.68C6.25454 39.5872 6.38471 39.4268 6.4437 39.2342C6.50268 39.0416 6.48566 38.8325 6.39636 38.653C6.19448 38.2467 6.00563 37.8405 5.83241 37.4262C5.76973 37.2772 5.66286 37.1529 5.52742 37.0715C5.39198 36.9902 5.23506 36.956 5.07958 36.9739L2.51765 37.2718C2.35231 37.2915 2.1849 37.2655 2.03233 37.1964C1.87976 37.1273 1.74744 37.0175 1.64873 36.8782C1.55002 36.7389 1.48842 36.575 1.47016 36.403C1.4519 36.2311 1.47761 36.0571 1.54471 35.8988L4.99492 27.6959C5.06125 27.5374 5.16662 27.3998 5.30039 27.2972C5.43416 27.1945 5.59161 27.1303 5.75686 27.1111C5.92211 27.0918 6.08931 27.1183 6.24161 27.1877C6.3939 27.257 6.5259 27.367 6.62429 27.5063L11.7338 34.714C11.8325 34.8526 11.8943 35.0157 11.9132 35.187C11.932 35.3583 11.9072 35.5317 11.8412 35.6898C11.7753 35.848 11.6704 35.9853 11.5373 36.0881C11.4041 36.1908 11.2473 36.2554 11.0826 36.2752L8.89057 36.5312C8.77243 36.5449 8.6593 36.5883 8.56093 36.6577C8.46257 36.7271 8.38195 36.8204 8.32603 36.9295C8.27012 37.0385 8.24059 37.1601 8.24001 37.2837C8.23943 37.4073 8.26781 37.5292 8.3227 37.6388C9.96482 40.931 12.4698 43.6727 15.548 45.5467C18.6262 47.4208 22.1518 48.3507 25.717 48.2289C25.837 48.2231 25.9546 48.2656 26.0453 48.3476C26.136 48.4295 26.1929 48.5446 26.2041 48.669L26.32 49.9309C26.326 49.9972 26.3189 50.064 26.2992 50.1274C26.2795 50.1907 26.2476 50.2492 26.2054 50.2993C26.1637 50.3486 26.1127 50.3886 26.0556 50.4168C25.9985 50.4449 25.9365 50.4607 25.8733 50.4631C22.9807 50.5763 20.0968 50.0664 17.4029 48.9653C14.7089 47.8643 12.2631 46.196 10.2191 44.0652C9.35944 43.1692 8.5751 42.1984 7.87466 41.1634C7.76132 41.0015 7.59126 40.8924 7.40123 40.8598C7.21119 40.8272 7.01645 40.8736 6.85906 40.989C6.70167 41.1045 6.59428 41.2796 6.5601 41.4767C6.52592 41.6737 6.5677 41.8769 6.67639 42.0422C7.42777 43.148 8.26875 44.1849 9.19013 45.1416C11.2748 47.3146 13.7512 49.0389 16.4775 50.2157C19.2039 51.3925 22.1268 51.9989 25.0788 52C25.3601 52 25.6415 51.9945 25.9228 51.9837C26.1856 51.9731 26.4436 51.9069 26.681 51.7892C26.9184 51.6715 27.1302 51.5047 27.3036 51.2991C27.4769 51.0934 27.6081 50.8532 27.6891 50.593C27.7701 50.3329 27.7993 50.0583 27.7749 49.7861L27.659 48.5241Z" fill="black"/>
<path d="M11.8628 24.6696C14.2091 24.6696 16.5027 23.9463 18.4535 22.5911C20.4044 21.2359 21.9248 19.3097 22.8227 17.0561C23.7205 14.8025 23.9553 12.3227 23.4975 9.93032C23.0397 7.53796 21.9097 5.34047 20.2506 3.61575C18.5914 1.89103 16.4775 0.716552 14.1763 0.240841C11.8751 -0.23487 9.4898 0.00955065 7.32218 0.943199C5.15457 1.87685 3.30195 3.45778 1.99861 5.48608C0.695266 7.51438 -0.000257536 9.89893 7.15335e-08 12.3382C0.00379223 15.6077 1.25488 18.7422 3.47879 21.054C5.70271 23.3657 8.71786 24.666 11.8628 24.6696ZM11.8628 1.52735C13.9192 1.52735 15.9293 2.16128 17.6392 3.34899C19.349 4.53669 20.6817 6.22482 21.4687 8.19991C22.2557 10.175 22.4617 12.3484 22.0606 14.4452C21.6595 16.542 20.6694 18.468 19.2154 19.9798C17.7614 21.4916 15.9089 22.5212 13.892 22.9384C11.8752 23.3557 9.78464 23.1418 7.88472 22.3239C5.9848 21.5059 4.36084 20.1207 3.21819 18.3432C2.07554 16.5658 1.46552 14.476 1.46526 12.3382C1.46802 9.47209 2.56431 6.72418 4.51359 4.69742C6.46286 2.67066 9.10591 1.53058 11.8628 1.52735Z" fill="black"/>
<path d="M11.8628 20.9121C13.4942 20.9121 15.089 20.4091 16.4455 19.4668C17.802 18.5245 18.8592 17.1851 19.4835 15.6181C20.1078 14.0511 20.271 12.3268 19.9526 10.6634C19.6343 8.99989 18.8486 7.47192 17.6949 6.2727C16.5412 5.07348 15.0713 4.25687 13.4712 3.92615C11.871 3.59542 10.2125 3.76543 8.70532 4.41468C7.19814 5.06393 5.90999 6.16326 5.0038 7.57363C4.0976 8.98401 3.61406 10.6421 3.61432 12.3382C3.61708 14.6115 4.48704 16.7908 6.03336 18.3982C7.57969 20.0055 9.67612 20.9096 11.8628 20.9121ZM11.8628 5.28486C13.2044 5.28486 14.5158 5.69845 15.6313 6.47333C16.7468 7.24821 17.6162 8.34957 18.1296 9.63815C18.643 10.9267 18.7774 12.3446 18.5156 13.7126C18.2539 15.0805 17.6079 16.3371 16.6592 17.3233C15.7106 18.3095 14.5019 18.9812 13.1861 19.2533C11.8703 19.5254 10.5064 19.3857 9.26696 18.852C8.02749 18.3182 6.9681 17.4144 6.22275 16.2547C5.47741 15.095 5.07958 13.7316 5.07958 12.3368C5.08199 10.4673 5.79743 8.67505 7.069 7.3531C8.34057 6.03114 10.0645 5.28737 11.8628 5.28486Z" fill="black"/>
<path d="M8.88276 16.552C9.73717 17.0314 10.3259 17.1817 11.0683 17.2291V17.6976C11.0641 17.8003 11.08 17.9028 11.1149 17.999C11.1499 18.0952 11.2032 18.1831 11.2716 18.2573C11.34 18.3315 11.4222 18.3905 11.5132 18.4309C11.6041 18.4712 11.702 18.492 11.8009 18.492C11.8998 18.492 11.9977 18.4712 12.0887 18.4309C12.1796 18.3905 12.2618 18.3315 12.3302 18.2573C12.3987 18.1831 12.452 18.0952 12.4869 17.999C12.5219 17.9028 12.5377 17.8003 12.5335 17.6976V17.1736C14.0965 16.8824 15.0473 15.7003 15.2036 14.5345C15.3859 13.1804 14.5524 12.0119 13.0741 11.565C12.1415 11.282 11.1074 10.9395 10.5095 10.5386C10.4096 10.4696 10.3321 10.3706 10.2875 10.2548C10.2428 10.139 10.2331 10.0118 10.2595 9.89006C10.3142 9.54883 10.5838 9.13042 11.1712 8.97742C11.3914 8.92106 11.6166 8.88795 11.8432 8.87857H11.855C12.3839 8.8496 12.9084 8.99149 13.3567 9.28479C13.5121 9.40617 13.7076 9.45838 13.9001 9.42994C14.0926 9.4015 14.2663 9.29474 14.383 9.13314C14.4998 8.97153 14.55 8.76833 14.5227 8.56823C14.4953 8.36812 14.3926 8.18752 14.2372 8.06613C13.7274 7.70509 13.1419 7.47619 12.5296 7.39858V6.99236C12.5217 6.79591 12.441 6.61026 12.3045 6.47419C12.168 6.33812 11.9861 6.26215 11.797 6.26215C11.6079 6.26215 11.4261 6.33812 11.2895 6.47419C11.153 6.61026 11.0723 6.79591 11.0644 6.99236V7.44597C10.9836 7.46357 10.9016 7.48118 10.8182 7.50149C9.76322 7.7723 8.97524 8.61453 8.80983 9.64226C8.73544 10.0572 8.78127 10.4859 8.94149 10.8737C9.10172 11.2616 9.36913 11.5913 9.70982 11.8209C10.3194 12.2272 11.1738 12.5806 12.6599 13.0301C13.4309 13.2644 13.8321 13.7356 13.7487 14.326C13.6276 15.2264 12.6508 15.7179 11.7951 15.722C10.8065 15.7288 10.4144 15.6909 9.58088 15.221C9.49621 15.1736 9.40339 15.144 9.30773 15.1339C9.21207 15.1238 9.11543 15.1334 9.02333 15.1621C8.93123 15.1909 8.84548 15.2382 8.77097 15.3014C8.69646 15.3646 8.63464 15.4424 8.58906 15.5304C8.54348 15.6184 8.51501 15.7149 8.5053 15.8144C8.49559 15.9138 8.50481 16.0143 8.53245 16.11C8.56008 16.2058 8.60559 16.2949 8.66637 16.3724C8.72714 16.4499 8.802 16.5141 8.88667 16.5615L8.88276 16.552Z" fill="black"/>
<path d="M49.199 29.658C49.1693 29.4815 49.0806 29.3216 48.9486 29.2064C48.8166 29.0913 48.6497 29.0282 48.4774 29.0283H30.2925C30.1202 29.0282 29.9534 29.0913 29.8214 29.2064C29.6894 29.3216 29.6007 29.4815 29.571 29.658C28.503 35.9991 28.503 42.4849 29.571 48.8261C29.6007 49.0027 29.6893 49.1627 29.8213 49.2781C29.9532 49.3935 30.1201 49.4569 30.2925 49.4571H48.4774C48.6499 49.4569 48.8167 49.3935 48.9487 49.2781C49.0807 49.1627 49.1693 49.0027 49.199 48.8261C50.267 42.4849 50.267 35.9991 49.199 29.658ZM41.59 30.5503V37.8622L39.7757 36.6734C39.6585 36.5972 39.5231 36.5568 39.385 36.5568C39.2468 36.5568 39.1114 36.5972 38.9942 36.6734L37.1799 37.8622V30.5503H41.59ZM47.8575 47.9378H30.9125C30.0099 42.1813 30.0099 36.3108 30.9125 30.5544H35.7147V39.2461C35.7148 39.3823 35.75 39.5161 35.8166 39.6334C35.8833 39.7507 35.979 39.8472 36.0938 39.9131C36.2085 39.9789 36.3382 40.0115 36.4692 40.0075C36.6002 40.0036 36.7278 39.9632 36.8387 39.8906L39.385 38.2211L41.9313 39.8906C42.0486 39.9665 42.1839 40.0068 42.322 40.0071C42.5163 40.0071 42.7026 39.9269 42.8401 39.7843C42.9776 39.6416 43.055 39.448 43.0553 39.2461V30.5544H47.8575C48.76 36.3108 48.76 42.1813 47.8575 47.9378Z" fill="black"/>
</svg>
