<svg width="220" height="65" viewBox="0 0 220 65" fill="none" xmlns="http://www.w3.org/2000/svg">
<path d="M211.852 65H8.14815C3.58519 65 0 61.425 0 56.875V8.125C0 3.575 3.58519 0 8.14815 0H211.852C216.415 0 220 3.575 220 8.125V56.875C220 61.2625 216.415 65 211.852 65Z" fill="black"/>
<path d="M211.852 1.3C215.6 1.3 218.696 4.3875 218.696 8.125V56.875C218.696 60.6125 215.6 63.7 211.852 63.7H8.14815C4.4 63.7 1.3037 60.6125 1.3037 56.875V8.125C1.3037 4.3875 4.4 1.3 8.14815 1.3H211.852ZM211.852 0H8.14815C3.58519 0 0 3.575 0 8.125V56.875C0 61.425 3.58519 65 8.14815 65H211.852C216.415 65 220 61.425 220 56.875V8.125C220 3.7375 216.415 0 211.852 0Z" fill="#A6A6A6"/>
<path d="M77.2443 16.5748C77.2443 17.8748 76.9184 19.0123 76.1036 19.8248C75.1258 20.7998 73.9851 21.2873 72.5184 21.2873C71.0517 21.2873 69.911 20.7998 68.9332 19.8248C67.9554 18.8498 67.4666 17.7123 67.4666 16.2498C67.4666 14.7873 67.9554 13.6498 68.9332 12.6748C69.911 11.6998 71.0517 11.2123 72.5184 11.2123C73.1703 11.2123 73.8221 11.3748 74.474 11.6998C75.1258 12.0248 75.6147 12.3498 75.9406 12.8373L75.1258 13.6498C74.474 12.8373 73.6591 12.5123 72.5184 12.5123C71.5406 12.5123 70.5629 12.8373 69.911 13.6498C69.0962 14.2998 68.7703 15.2748 68.7703 16.4123C68.7703 17.5498 69.0962 18.5248 69.911 19.1748C70.7258 19.8248 71.5406 20.3123 72.5184 20.3123C73.6591 20.3123 74.474 19.9873 75.2888 19.1748C75.7777 18.6873 76.1036 18.0373 76.1036 17.2248H72.5184V16.0873H77.2443C77.2443 16.0873 77.2443 16.4123 77.2443 16.5748Z" fill="white" stroke="white" stroke-width="0.2" stroke-miterlimit="10"/>
<path d="M84.7408 12.5129H80.3408V15.6004H84.4148V16.7379H80.3408V19.8254H84.7408V21.1254H79.0371V11.3754H84.7408V12.5129Z" fill="white" stroke="white" stroke-width="0.2" stroke-miterlimit="10"/>
<path d="M90.1183 21.1254H88.8146V12.5129H86.0442V11.3754H92.8886V12.5129H90.1183V21.1254Z" fill="white" stroke="white" stroke-width="0.2" stroke-miterlimit="10"/>
<path d="M97.6147 21.1254V11.3754H98.9184V21.1254H97.6147Z" fill="white" stroke="white" stroke-width="0.2" stroke-miterlimit="10"/>
<path d="M104.459 21.1254H103.155V12.5129H100.385V11.3754H107.067V12.5129H104.296V21.1254H104.459Z" fill="white" stroke="white" stroke-width="0.2" stroke-miterlimit="10"/>
<path d="M119.94 19.8249C118.963 20.7999 117.822 21.2874 116.355 21.2874C114.889 21.2874 113.748 20.7999 112.77 19.8249C111.792 18.8499 111.303 17.7124 111.303 16.2499C111.303 14.7874 111.792 13.6499 112.77 12.6749C113.748 11.6999 114.889 11.2124 116.355 11.2124C117.822 11.2124 118.963 11.6999 119.94 12.6749C120.918 13.6499 121.407 14.7874 121.407 16.2499C121.407 17.7124 120.918 18.8499 119.94 19.8249ZM113.748 19.0124C114.4 19.6624 115.378 20.1499 116.355 20.1499C117.333 20.1499 118.311 19.8249 118.963 19.0124C119.615 18.3624 120.103 17.3874 120.103 16.2499C120.103 15.1124 119.777 14.1374 118.963 13.4874C118.311 12.8374 117.333 12.3499 116.355 12.3499C115.378 12.3499 114.4 12.6749 113.748 13.4874C113.096 14.1374 112.607 15.1124 112.607 16.2499C112.607 17.3874 112.933 18.3624 113.748 19.0124Z" fill="white" stroke="white" stroke-width="0.2" stroke-miterlimit="10"/>
<path d="M123.2 21.1254V11.3754H124.667L129.392 19.0129V17.0629V11.3754H130.696V21.1254H129.392L124.341 13.1629V15.1129V21.1254H123.2Z" fill="white" stroke="white" stroke-width="0.2" stroke-miterlimit="10"/>
<path d="M110.978 35.425C107.067 35.425 103.97 38.35 103.97 42.4125C103.97 46.3125 107.067 49.4 110.978 49.4C114.889 49.4 117.985 46.475 117.985 42.4125C117.985 38.1875 114.889 35.425 110.978 35.425ZM110.978 46.475C108.859 46.475 107.067 44.6875 107.067 42.25C107.067 39.8125 108.859 38.025 110.978 38.025C113.096 38.025 114.889 39.65 114.889 42.25C114.889 44.6875 113.096 46.475 110.978 46.475ZM95.8222 35.425C91.9111 35.425 88.8148 38.35 88.8148 42.4125C88.8148 46.3125 91.9111 49.4 95.8222 49.4C99.7333 49.4 102.83 46.475 102.83 42.4125C102.83 38.1875 99.7333 35.425 95.8222 35.425ZM95.8222 46.475C93.7037 46.475 91.9111 44.6875 91.9111 42.25C91.9111 39.8125 93.7037 38.025 95.8222 38.025C97.9407 38.025 99.7333 39.65 99.7333 42.25C99.7333 44.6875 97.9407 46.475 95.8222 46.475ZM77.7333 37.5375V40.4625H84.7407C84.5778 42.0875 83.9259 43.3875 83.1111 44.2C82.1333 45.175 80.5037 46.3125 77.7333 46.3125C73.3333 46.3125 70.0741 42.9 70.0741 38.5125C70.0741 34.125 73.4963 30.7125 77.7333 30.7125C80.0148 30.7125 81.8074 31.6875 83.1111 32.825L85.2296 30.7125C83.437 29.0875 81.1556 27.7875 77.8963 27.7875C72.0296 27.7875 66.9778 32.6625 66.9778 38.5125C66.9778 44.3625 72.0296 49.2375 77.8963 49.2375C81.1556 49.2375 83.437 48.2625 85.3926 46.15C87.3482 44.2 88 41.4375 88 39.325C88 38.675 88 38.025 87.837 37.5375H77.7333ZM151.718 39.8125C151.067 38.1875 149.437 35.425 145.852 35.425C142.267 35.425 139.333 38.1875 139.333 42.4125C139.333 46.3125 142.267 49.4 146.178 49.4C149.274 49.4 151.23 47.45 151.881 46.3125L149.6 44.6875C148.785 45.825 147.807 46.6375 146.178 46.6375C144.548 46.6375 143.57 45.9875 142.756 44.525L152.044 40.625L151.718 39.8125ZM142.267 42.0875C142.267 39.4875 144.385 38.025 145.852 38.025C146.993 38.025 148.133 38.675 148.459 39.4875L142.267 42.0875ZM134.607 48.75H137.704V28.4375H134.607V48.75ZM129.719 36.8875C128.904 36.075 127.6 35.2625 125.97 35.2625C122.548 35.2625 119.289 38.35 119.289 42.25C119.289 46.15 122.385 49.075 125.97 49.075C127.6 49.075 128.904 48.2625 129.556 47.45H129.719V48.425C129.719 51.025 128.252 52.4875 125.97 52.4875C124.178 52.4875 122.874 51.1875 122.548 50.05L119.941 51.1875C120.756 52.975 122.711 55.25 126.133 55.25C129.719 55.25 132.652 53.1375 132.652 48.1V35.75H129.719V36.8875ZM126.133 46.475C124.015 46.475 122.222 44.6875 122.222 42.25C122.222 39.8125 124.015 38.025 126.133 38.025C128.252 38.025 129.881 39.8125 129.881 42.25C129.881 44.6875 128.252 46.475 126.133 46.475ZM165.896 28.4375H158.563V48.75H161.659V41.1125H165.896C169.318 41.1125 172.578 38.675 172.578 34.775C172.578 30.875 169.318 28.4375 165.896 28.4375ZM166.059 38.1875H161.659V31.2H166.059C168.341 31.2 169.644 33.15 169.644 34.6125C169.481 36.4 168.178 38.1875 166.059 38.1875ZM184.8 35.2625C182.518 35.2625 180.237 36.2375 179.422 38.35L182.193 39.4875C182.844 38.35 183.822 38.025 184.963 38.025C186.593 38.025 188.059 39 188.222 40.625V40.7875C187.733 40.4625 186.43 39.975 185.126 39.975C182.193 39.975 179.259 41.6 179.259 44.525C179.259 47.2875 181.704 49.075 184.311 49.075C186.43 49.075 187.407 48.1 188.222 47.125H188.385V48.75H191.318V40.95C190.993 37.375 188.222 35.2625 184.8 35.2625ZM184.474 46.475C183.496 46.475 182.03 45.9875 182.03 44.6875C182.03 43.0625 183.822 42.575 185.289 42.575C186.593 42.575 187.244 42.9 188.059 43.225C187.733 45.175 186.104 46.475 184.474 46.475ZM201.585 35.75L198.163 44.525H198L194.415 35.75H191.156L196.533 48.1L193.437 54.925H196.533L204.844 35.75H201.585ZM174.207 48.75H177.304V28.4375H174.207V48.75Z" fill="white"/>
<path d="M16.9479 12.1874C16.459 12.6749 16.1331 13.4874 16.1331 14.4624V50.3749C16.1331 51.3499 16.459 52.1624 16.9479 52.6499L17.1108 52.8124L37.3182 32.6624V32.4999V32.3374L16.9479 12.1874Z" fill="url(#paint0_linear_1_181)"/>
<path d="M43.9996 39.4872L37.3181 32.8247V32.4997V32.3372L43.9996 25.6747L44.1626 25.8372L52.1477 30.3872C54.4292 31.6872 54.4292 33.7997 52.1477 35.0997L43.9996 39.4872Z" fill="url(#paint1_linear_1_181)"/>
<path d="M44.1626 39.3248L37.3181 32.4998L16.9478 52.8123C17.7626 53.6248 18.9033 53.6248 20.37 52.9748L44.1626 39.3248Z" fill="url(#paint2_linear_1_181)"/>
<path d="M44.1627 25.675L20.3701 12.1875C18.9034 11.375 17.7627 11.5375 16.9479 12.35L37.3182 32.5L44.1627 25.675Z" fill="url(#paint3_linear_1_181)"/>
<path opacity="0.2" d="M43.9997 39.1625L20.3701 52.4875C19.0664 53.3 17.9256 53.1375 17.1108 52.4875L16.9479 52.65L17.1108 52.8125C17.9256 53.4625 19.0664 53.625 20.3701 52.8125L43.9997 39.1625Z" fill="black"/>
<path opacity="0.12" d="M16.948 52.4869C16.4591 51.9994 16.2961 51.1869 16.2961 50.2119V50.3744C16.2961 51.3494 16.6221 52.1619 17.111 52.6494V52.4869H16.948Z" fill="black"/>
<path opacity="0.12" d="M52.1479 34.6123L43.9998 39.1623L44.1627 39.3248L52.1479 34.7748C53.2886 34.1248 53.7775 33.3123 53.7775 32.4998C53.7775 33.3123 53.1257 33.9623 52.1479 34.6123Z" fill="black"/>
<path opacity="0.25" d="M20.3702 12.3496L52.148 30.3871C53.1258 31.0371 53.7776 31.6871 53.7776 32.4996C53.7776 31.6871 53.2887 30.8746 52.148 30.2246L20.3702 12.1871C18.0887 10.8871 16.2961 12.0246 16.2961 14.6246V14.7871C16.2961 12.1871 18.0887 11.0496 20.3702 12.3496Z" fill="white"/>
<defs>
<linearGradient id="paint0_linear_1_181" x1="35.5252" y1="14.1531" x2="8.25387" y2="41.5021" gradientUnits="userSpaceOnUse">
<stop stop-color="#00A0FF"/>
<stop offset="0.00657445" stop-color="#00A1FF"/>
<stop offset="0.2601" stop-color="#00BEFF"/>
<stop offset="0.5122" stop-color="#00D2FF"/>
<stop offset="0.7604" stop-color="#00DFFF"/>
<stop offset="1" stop-color="#00E3FF"/>
</linearGradient>
<linearGradient id="paint1_linear_1_181" x1="55.1371" y1="32.502" x2="15.7052" y2="32.502" gradientUnits="userSpaceOnUse">
<stop stop-color="#FFE000"/>
<stop offset="0.4087" stop-color="#FFBD00"/>
<stop offset="0.7754" stop-color="#FFA500"/>
<stop offset="1" stop-color="#FF9C00"/>
</linearGradient>
<linearGradient id="paint2_linear_1_181" x1="40.4584" y1="36.2309" x2="3.47634" y2="73.3184" gradientUnits="userSpaceOnUse">
<stop stop-color="#FF3A44"/>
<stop offset="1" stop-color="#C31162"/>
</linearGradient>
<linearGradient id="paint3_linear_1_181" x1="11.8916" y1="0.286323" x2="28.4058" y2="16.8474" gradientUnits="userSpaceOnUse">
<stop stop-color="#32A071"/>
<stop offset="0.0685" stop-color="#2DA771"/>
<stop offset="0.4762" stop-color="#15CF74"/>
<stop offset="0.8009" stop-color="#06E775"/>
<stop offset="1" stop-color="#00F076"/>
</linearGradient>
</defs>
</svg>
