<svg width="17" height="16" viewBox="0 0 17 16" fill="none" xmlns="http://www.w3.org/2000/svg">
<path d="M8.49136 1.20312L10.632 5.67188L15.5226 6.39062L11.9914 9.92188L12.1007 10.625L12.8195 14.8438L8.49136 12.5312L4.16324 14.8438L4.88199 10.625L4.99136 9.92188L1.46011 6.39062L6.33511 5.67188L6.66324 5L8.49136 1.20312ZM8.49136 0.25C8.2622 0.25 8.05386 0.307292 7.86636 0.421875C7.67886 0.536458 7.53824 0.692708 7.44449 0.890625L5.63199 4.65625L1.46011 5.26562C1.25178 5.29688 1.06428 5.38021 0.897614 5.51562C0.730947 5.65104 0.611155 5.82292 0.538239 6.03125C0.392405 6.45833 0.486155 6.83854 0.819489 7.17188L3.86636 10.2188L3.16324 14.4531C3.12157 14.6615 3.14241 14.8646 3.22574 15.0625C3.31949 15.2604 3.45491 15.4219 3.63199 15.5469C3.66324 15.5677 3.69449 15.5885 3.72574 15.6094C3.76741 15.6302 3.80386 15.6458 3.83511 15.6562C3.87678 15.6771 3.91324 15.6927 3.94449 15.7031C3.98616 15.7135 4.02261 15.724 4.05386 15.7344C4.09553 15.7448 4.1372 15.75 4.17886 15.75C4.22053 15.75 4.2622 15.75 4.30386 15.75C4.50178 15.75 4.68407 15.7031 4.85074 15.6094L8.49136 13.6562L12.1164 15.6094C12.2101 15.6615 12.3039 15.6979 12.3976 15.7188C12.4914 15.7396 12.5851 15.75 12.6789 15.75C12.9289 15.75 13.1528 15.6823 13.3507 15.5469C13.5278 15.4219 13.658 15.2604 13.7414 15.0625C13.8351 14.8646 13.8612 14.6615 13.8195 14.4531L13.1164 10.2188L16.1632 7.17188C16.4966 6.83854 16.5903 6.45833 16.4445 6.03125C16.3716 5.82292 16.2518 5.65104 16.0851 5.51562C15.9184 5.38021 15.7309 5.29688 15.5226 5.26562L11.3507 4.65625L9.53824 0.890625C9.51741 0.838542 9.49136 0.791667 9.46011 0.75C9.42886 0.708333 9.39241 0.666667 9.35074 0.625C9.31949 0.583333 9.28303 0.546875 9.24136 0.515625C9.1997 0.473958 9.15282 0.442708 9.10074 0.421875C9.05907 0.390625 9.0122 0.364583 8.96011 0.34375C8.91845 0.322917 8.87157 0.307292 8.81949 0.296875C8.76741 0.276042 8.71011 0.265625 8.64761 0.265625C8.59553 0.255208 8.54345 0.25 8.49136 0.25Z" fill="#CDB010"/>
</svg>
