<svg width="76" height="66" viewBox="0 0 76 66" fill="none" xmlns="http://www.w3.org/2000/svg">
<path d="M38 25.7473C40.5542 25.7473 43.051 24.9923 45.1747 23.5777C47.2984 22.1632 48.9536 20.1526 49.931 17.8002C50.9085 15.4479 51.1642 12.8594 50.6659 10.3621C50.1676 7.8649 48.9377 5.57103 47.1316 3.77062C45.3256 1.9702 43.0245 0.744103 40.5194 0.247369C38.0143 -0.249364 35.4177 0.00557858 33.058 0.979956C30.6983 1.95433 28.6814 3.60439 27.2623 5.72145C25.8433 7.83851 25.0859 10.3275 25.0859 12.8737C25.0896 16.2869 26.4514 19.5592 28.8724 21.9727C31.2935 24.3862 34.5761 25.7437 38 25.7473ZM38 4.4392C39.6734 4.4392 41.3092 4.93388 42.7006 5.86067C44.092 6.78746 45.1765 8.10474 45.8169 9.64594C46.4573 11.1871 46.6248 12.883 46.2984 14.5192C45.9719 16.1553 45.1661 17.6582 43.9828 18.8377C42.7995 20.0173 41.2919 20.8206 39.6506 21.1461C38.0094 21.4715 36.3082 21.3045 34.7621 20.6661C33.2161 20.0277 31.8947 18.9467 30.965 17.5596C30.0353 16.1726 29.5391 14.5419 29.5391 12.8737C29.5417 10.6375 30.4339 8.49369 32.0201 6.91249C33.6063 5.33128 35.7568 4.44181 38 4.4392Z" fill="url(#paint0_linear_1_540)"/>
<path d="M64.125 25.7473C65.7397 25.7473 67.3181 25.27 68.6607 24.3758C70.0033 23.4815 71.0497 22.2104 71.6676 20.7233C72.2855 19.2362 72.4472 17.5998 72.1322 16.0211C71.8172 14.4423 71.0396 12.9922 69.8979 11.854C68.7561 10.7158 67.3014 9.94069 65.7177 9.62667C64.1341 9.31264 62.4925 9.47381 61.0008 10.0898C59.509 10.7058 58.2339 11.7489 57.3368 13.0873C56.4398 14.4257 55.9609 15.9992 55.9609 17.6088C55.963 19.7666 56.8238 21.8355 58.3544 23.3613C59.885 24.8871 61.9604 25.7453 64.125 25.7473ZM64.125 13.9095C64.859 13.9095 65.5764 14.1264 66.1867 14.5329C66.797 14.9394 67.2726 15.5172 67.5535 16.1931C67.8343 16.8691 67.9078 17.6129 67.7646 18.3305C67.6215 19.0481 67.268 19.7073 66.749 20.2246C66.2301 20.742 65.5688 21.0943 64.849 21.2371C64.1291 21.3798 63.383 21.3065 62.7049 21.0266C62.0268 20.7466 61.4472 20.2724 61.0395 19.6641C60.6317 19.0557 60.4141 18.3405 60.4141 17.6088C60.4151 16.628 60.8064 15.6877 61.5021 14.9941C62.1978 14.3006 63.1411 13.9105 64.125 13.9095Z" fill="url(#paint1_linear_1_540)"/>
<path d="M65.9201 30.7784H62.4783C60.5537 30.7779 58.6691 31.3259 57.0466 32.3578C55.4241 33.3897 54.1313 34.8625 53.3207 36.6026C51.6405 34.7669 49.5945 33.3008 47.3136 32.2979C45.0327 31.295 42.5671 30.7775 40.0742 30.7784H35.9179C33.425 30.7775 30.9594 31.295 28.6785 32.2979C26.3976 33.3008 24.3516 34.7669 22.6714 36.6026C21.8613 34.8638 20.5698 33.3917 18.9488 32.3599C17.3279 31.3281 15.4449 30.7794 13.5217 30.7784H10.0799C7.41555 30.7732 4.85792 31.8218 2.96819 33.6941C1.07847 35.5665 0.0110024 38.1096 0 40.7656V56.9243C-2.13021e-06 57.4953 0.113011 58.0607 0.332571 58.5881C0.552131 59.1155 0.87392 59.5945 1.2795 59.9977C1.68508 60.4009 2.16649 60.7204 2.69613 60.9379C3.22577 61.1553 3.79325 61.2664 4.36604 61.2649H17.9807C18.0949 62.5564 18.6898 63.7585 19.6483 64.6348C20.6068 65.5111 21.8596 65.9981 23.1602 66H52.8477C54.1483 65.9981 55.4011 65.5111 56.3596 64.6348C57.3181 63.7585 57.913 62.5564 58.0272 61.2649H71.4855C72.6811 61.2638 73.8276 60.7904 74.6738 59.9484C75.52 59.1063 75.9969 57.9643 76 56.7724V40.7656C75.989 38.1096 74.9215 35.5665 73.0318 33.6941C71.1421 31.8218 68.5844 30.7732 65.9201 30.7784ZM4.45312 40.7656C4.46255 39.2865 5.06035 37.8715 6.11529 36.8314C7.17024 35.7912 8.59611 35.2108 10.0799 35.2176H13.5217C15.0055 35.2108 16.4313 35.7912 17.4863 36.8314C18.5412 37.8715 19.139 39.2865 19.1484 40.7656V42.2848C17.6502 46.1716 17.9609 48.4997 17.9609 56.8217H4.45312V40.7656ZM53.5859 60.813C53.5859 61.0096 53.5079 61.1982 53.3688 61.3376C53.2297 61.477 53.041 61.5558 52.8438 61.5569H23.1562C22.9584 61.5569 22.7686 61.4785 22.6287 61.339C22.4887 61.1995 22.4101 61.0103 22.4101 60.813V48.6871C22.4138 45.1159 23.8385 41.692 26.3717 39.1668C28.9048 36.6416 32.3395 35.2213 35.9219 35.2176H40.0781C43.6604 35.2218 47.0947 36.6422 49.6278 39.1674C52.1608 41.6925 53.5857 45.1161 53.5899 48.6871L53.5859 60.813ZM71.5469 56.7724C71.5469 56.8474 72.3781 56.8217 58.0391 56.8217C58.0391 48.4385 58.3458 46.1676 56.8516 42.2848V40.7656C56.861 39.2865 57.4588 37.8715 58.5137 36.8314C59.5687 35.7912 60.9946 35.2108 62.4783 35.2176H65.9201C67.4039 35.2108 68.8298 35.7912 69.8847 36.8314C70.9397 37.8715 71.5375 39.2865 71.5469 40.7656V56.7724Z" fill="url(#paint2_linear_1_540)"/>
<path d="M11.875 25.7473C13.4897 25.7473 15.0681 25.27 16.4107 24.3758C17.7533 23.4815 18.7997 22.2104 19.4176 20.7233C20.0355 19.2362 20.1972 17.5998 19.8822 16.0211C19.5672 14.4423 18.7896 12.9922 17.6479 11.854C16.5061 10.7158 15.0514 9.94069 13.4677 9.62667C11.8841 9.31264 10.2425 9.47381 8.75075 10.0898C7.25896 10.7058 5.98391 11.7489 5.08684 13.0873C4.18976 14.4257 3.71094 15.9992 3.71094 17.6088C3.71303 19.7666 4.57385 21.8355 6.10446 23.3613C7.63506 24.8871 9.7104 25.7453 11.875 25.7473ZM11.875 13.9095C12.609 13.9095 13.3264 14.1264 13.9367 14.5329C14.5469 14.9394 15.0226 15.5172 15.3035 16.1931C15.5843 16.8691 15.6578 17.6129 15.5146 18.3305C15.3714 19.0481 15.018 19.7073 14.499 20.2246C13.98 20.742 13.3188 21.0943 12.599 21.2371C11.8791 21.3798 11.133 21.3065 10.4549 21.0266C9.7768 20.7466 9.19724 20.2724 8.78947 19.6641C8.38171 19.0557 8.16406 18.3405 8.16406 17.6088C8.16511 16.628 8.55642 15.6877 9.25213 14.9941C9.94784 14.3006 10.8911 13.9105 11.875 13.9095Z" fill="url(#paint3_linear_1_540)"/>
<defs>
<linearGradient id="paint0_linear_1_540" x1="17.7045" y1="11.5" x2="77.6859" y2="55.7824" gradientUnits="userSpaceOnUse">
<stop stop-color="#1C468A"/>
<stop offset="1" stop-color="#5E89D0"/>
</linearGradient>
<linearGradient id="paint1_linear_1_540" x1="17.7045" y1="11.5" x2="77.6859" y2="55.7824" gradientUnits="userSpaceOnUse">
<stop stop-color="#1C468A"/>
<stop offset="1" stop-color="#5E89D0"/>
</linearGradient>
<linearGradient id="paint2_linear_1_540" x1="17.7045" y1="11.5" x2="77.6859" y2="55.7824" gradientUnits="userSpaceOnUse">
<stop stop-color="#1C468A"/>
<stop offset="1" stop-color="#5E89D0"/>
</linearGradient>
<linearGradient id="paint3_linear_1_540" x1="17.7045" y1="11.5" x2="77.6859" y2="55.7824" gradientUnits="userSpaceOnUse">
<stop stop-color="#1C468A"/>
<stop offset="1" stop-color="#5E89D0"/>
</linearGradient>
</defs>
</svg>
