<svg width="64" height="66" viewBox="0 0 64 66" fill="none" xmlns="http://www.w3.org/2000/svg">
<path d="M19.5632 34.1602H9.71681C9.2014 34.1602 8.70709 34.3639 8.34264 34.7265C7.97818 35.0891 7.77344 35.5809 7.77344 36.0938C7.77344 36.6066 7.97818 37.0984 8.34264 37.461C8.70709 37.8236 9.2014 38.0273 9.71681 38.0273H19.5632C20.0786 38.0273 20.573 37.8236 20.9374 37.461C21.3019 37.0984 21.5066 36.6066 21.5066 36.0938C21.5066 35.5809 21.3019 35.0891 20.9374 34.7265C20.573 34.3639 20.0786 34.1602 19.5632 34.1602Z" fill="url(#paint0_linear_1_542)"/>
<path d="M19.5632 25.9102H9.71681C9.2014 25.9102 8.70709 26.1139 8.34264 26.4765C7.97818 26.8391 7.77344 27.3309 7.77344 27.8438C7.77344 28.3566 7.97818 28.8484 8.34264 29.211C8.70709 29.5736 9.2014 29.7773 9.71681 29.7773H19.5632C20.0786 29.7773 20.573 29.5736 20.9374 29.211C21.3019 28.8484 21.5066 28.3566 21.5066 27.8438C21.5066 27.3309 21.3019 26.8391 20.9374 26.4765C20.573 26.1139 20.0786 25.9102 19.5632 25.9102Z" fill="url(#paint1_linear_1_542)"/>
<path d="M38.7378 17.6602H9.71681C9.2014 17.6602 8.70709 17.8639 8.34264 18.2265C7.97818 18.5891 7.77344 19.0809 7.77344 19.5938C7.77344 20.1066 7.97818 20.5984 8.34264 20.961C8.70709 21.3236 9.2014 21.5273 9.71681 21.5273H38.7378C39.2533 21.5273 39.7476 21.3236 40.112 20.961C40.4765 20.5984 40.6812 20.1066 40.6812 19.5938C40.6812 19.0809 40.4765 18.5891 40.112 18.2265C39.7476 17.8639 39.2533 17.6602 38.7378 17.6602Z" fill="url(#paint2_linear_1_542)"/>
<path d="M38.7378 10.4414H9.71681C9.2014 10.4414 8.70709 10.6451 8.34264 11.0077C7.97818 11.3704 7.77344 11.8622 7.77344 12.375C7.77344 12.8878 7.97818 13.3796 8.34264 13.7423C8.70709 14.1049 9.2014 14.3086 9.71681 14.3086H38.7378C39.2533 14.3086 39.7476 14.1049 40.112 13.7423C40.4765 13.3796 40.6812 12.8878 40.6812 12.375C40.6812 11.8622 40.4765 11.3704 40.112 11.0077C39.7476 10.6451 39.2533 10.4414 38.7378 10.4414Z" fill="url(#paint3_linear_1_542)"/>
<path d="M59.7436 31.0664H48.4548V8.16063C48.4525 5.9964 47.5871 3.92151 46.0487 2.39149C44.5103 0.86147 42.4246 0.00136482 40.2494 0H8.20189C6.02732 0.00227488 3.94247 0.862786 2.40481 2.39271C0.867149 3.92263 0.00228638 5.99699 0 8.16063V52.5938C0.00457088 56.1479 1.42562 59.5552 3.9515 62.0684C6.47739 64.5816 9.90191 65.9955 13.474 66H54.2831C56.8594 65.9973 59.3293 64.9778 61.151 63.1653C62.9726 61.3528 63.9973 58.8953 64 56.332V35.3048C63.9991 34.1813 63.5502 33.104 62.7519 32.3094C61.9536 31.5148 60.8711 31.0678 59.7419 31.0664H59.7436ZM13.474 62.1328C10.9323 62.1296 8.49562 61.1236 6.69834 59.3354C4.90107 57.5471 3.88994 55.1227 3.88674 52.5938V8.16063C3.88674 7.02103 4.34174 5.9281 5.15163 5.12228C5.96153 4.31646 7.05998 3.86375 8.20535 3.86375H40.2494C41.3948 3.86375 42.4932 4.31646 43.3031 5.12228C44.113 5.9281 44.568 7.02103 44.568 8.16063V56.332C44.5664 58.425 45.2504 60.4614 46.5166 62.1328H13.474ZM60.115 56.332C60.115 57.8705 59.5007 59.346 58.4074 60.4338C57.314 61.5217 55.8311 62.1328 54.2849 62.1328C52.7386 62.1328 51.2557 61.5217 50.1623 60.4338C49.069 59.346 48.4548 57.8705 48.4548 56.332V34.9336H59.7436C59.7925 34.9336 59.8409 34.9432 59.8861 34.9619C59.9313 34.9806 59.9723 35.0079 60.0068 35.0424C60.0413 35.0769 60.0687 35.1179 60.0872 35.1629C60.1058 35.2079 60.1152 35.2562 60.115 35.3048V56.332Z" fill="url(#paint4_linear_1_542)"/>
<path d="M35.5162 39.1514C35.1897 39.0362 34.8563 38.9176 34.5246 38.7956V32.8126C35.6941 33.2647 35.7753 33.8439 36.8066 33.8439C37.1906 33.8421 37.5656 33.7271 37.8841 33.5136C38.2026 33.3001 38.4505 32.9975 38.5964 32.644C38.7424 32.2906 38.7799 31.902 38.7042 31.5273C38.6286 31.1527 38.4431 30.8087 38.1712 30.5387C38.2092 30.4975 36.6805 29.2377 34.5246 28.8045V27.7733C34.5246 27.2605 34.3199 26.7686 33.9554 26.406C33.591 26.0434 33.0966 25.8397 32.5812 25.8397C32.0658 25.8397 31.5715 26.0434 31.2071 26.406C30.8426 26.7686 30.6379 27.2605 30.6379 27.7733V28.9369C25.3709 30.3119 24.2688 36.9841 27.7669 39.7134C28.6537 40.3828 29.6175 40.9448 30.6379 41.3875V49.3659C29.7949 49.2439 29.1557 48.9517 28.1417 48.2917C27.7104 48.0109 27.1846 47.9121 26.68 48.017C26.1754 48.1219 25.7334 48.422 25.4512 48.8512C25.169 49.2803 25.0697 49.8035 25.1751 50.3055C25.2806 50.8075 25.5822 51.2473 26.0135 51.5281C27.7634 52.6676 29.0382 53.1059 30.6379 53.2469V54.4053C30.6379 54.9181 30.8426 55.4099 31.2071 55.7726C31.5715 56.1352 32.0658 56.3389 32.5812 56.3389C33.0966 56.3389 33.591 56.1352 33.9554 55.7726C34.3199 55.4099 34.5246 54.9181 34.5246 54.4053V53.075C41.3204 51.3562 42.6557 41.6625 35.5162 39.1531V39.1514ZM30.6379 37.0064C30.4651 36.8981 30.3097 36.7864 30.1645 36.673C29.3371 36.0267 29.4597 34.0948 30.6379 33.1478V37.0064ZM34.5246 48.9328V42.9172C37.3611 44.1427 36.6822 47.6609 34.5246 48.9328Z" fill="url(#paint5_linear_1_542)"/>
<defs>
<linearGradient id="paint0_linear_1_542" x1="14.9091" y1="11.5" x2="71.195" y2="46.493" gradientUnits="userSpaceOnUse">
<stop stop-color="#289328"/>
<stop offset="1" stop-color="#66D05E"/>
</linearGradient>
<linearGradient id="paint1_linear_1_542" x1="14.9091" y1="11.5" x2="71.195" y2="46.493" gradientUnits="userSpaceOnUse">
<stop stop-color="#289328"/>
<stop offset="1" stop-color="#66D05E"/>
</linearGradient>
<linearGradient id="paint2_linear_1_542" x1="14.9091" y1="11.5" x2="71.195" y2="46.493" gradientUnits="userSpaceOnUse">
<stop stop-color="#289328"/>
<stop offset="1" stop-color="#66D05E"/>
</linearGradient>
<linearGradient id="paint3_linear_1_542" x1="14.9091" y1="11.5" x2="71.195" y2="46.493" gradientUnits="userSpaceOnUse">
<stop stop-color="#289328"/>
<stop offset="1" stop-color="#66D05E"/>
</linearGradient>
<linearGradient id="paint4_linear_1_542" x1="14.9091" y1="11.5" x2="71.195" y2="46.493" gradientUnits="userSpaceOnUse">
<stop stop-color="#289328"/>
<stop offset="1" stop-color="#66D05E"/>
</linearGradient>
<linearGradient id="paint5_linear_1_542" x1="14.9091" y1="11.5" x2="71.195" y2="46.493" gradientUnits="userSpaceOnUse">
<stop stop-color="#289328"/>
<stop offset="1" stop-color="#66D05E"/>
</linearGradient>
</defs>
</svg>
