<svg width="58" height="59" viewBox="0 0 58 59" fill="none" xmlns="http://www.w3.org/2000/svg">
<g filter="url(#filter0_ddd_1_239)">
<path d="M48.9476 38.2607H46.4091C46.2153 38.2688 46.0321 38.3511 45.8978 38.4903C45.7636 38.6295 45.6886 38.8149 45.6886 39.0077C45.6886 39.2006 45.7636 39.386 45.8978 39.5252C46.0321 39.6644 46.2153 39.7467 46.4091 39.7548H48.9476C49.049 39.7591 49.1502 39.7429 49.2451 39.7073C49.34 39.6716 49.4267 39.6173 49.4999 39.5475C49.5731 39.4777 49.6314 39.3939 49.6712 39.3012C49.711 39.2084 49.7315 39.1086 49.7315 39.0077C49.7315 38.9069 49.711 38.8071 49.6712 38.7143C49.6314 38.6216 49.5731 38.5378 49.4999 38.468C49.4267 38.3982 49.34 38.3439 49.2451 38.3082C49.1502 38.2726 49.049 38.2564 48.9476 38.2607Z" fill="black"/>
<path d="M48.9476 36.2751H46.4091C46.2153 36.2832 46.0321 36.3655 45.8978 36.5047C45.7636 36.6439 45.6886 36.8293 45.6886 37.0221C45.6886 37.215 45.7636 37.4004 45.8978 37.5396C46.0321 37.6788 46.2153 37.7611 46.4091 37.7692H48.9476C49.049 37.7735 49.1502 37.7573 49.2451 37.7217C49.34 37.686 49.4267 37.6317 49.4999 37.5619C49.5731 37.4921 49.6314 37.4083 49.6712 37.3156C49.711 37.2228 49.7315 37.123 49.7315 37.0221C49.7315 36.9213 49.711 36.8215 49.6712 36.7287C49.6314 36.636 49.5731 36.5522 49.4999 36.4824C49.4267 36.4126 49.34 36.3583 49.2451 36.3226C49.1502 36.287 49.049 36.2708 48.9476 36.2751Z" fill="black"/>
<path d="M48.9476 34.2883H46.4091C46.2153 34.2964 46.0321 34.3786 45.8978 34.5179C45.7636 34.6571 45.6886 34.8425 45.6886 35.0353C45.6886 35.2282 45.7636 35.4136 45.8978 35.5528C46.0321 35.692 46.2153 35.7743 46.4091 35.7824H48.9476C49.049 35.7867 49.1502 35.7705 49.2451 35.7348C49.34 35.6992 49.4267 35.6449 49.4999 35.5751C49.5731 35.5053 49.6314 35.4215 49.6712 35.3287C49.711 35.236 49.7315 35.1362 49.7315 35.0353C49.7315 34.9345 49.711 34.8347 49.6712 34.7419C49.6314 34.6492 49.5731 34.5654 49.4999 34.4956C49.4267 34.4258 49.34 34.3714 49.2451 34.3358C49.1502 34.3002 49.049 34.284 48.9476 34.2883Z" fill="black"/>
<path d="M48.9476 31.134H46.4091C46.2153 31.1421 46.0321 31.2244 45.8978 31.3636C45.7636 31.5028 45.6886 31.6882 45.6886 31.881C45.6886 32.0739 45.7636 32.2593 45.8978 32.3985C46.0321 32.5377 46.2153 32.62 46.4091 32.6281H48.9476C49.049 32.6324 49.1502 32.6162 49.2451 32.5805C49.34 32.5449 49.4267 32.4906 49.4999 32.4208C49.5731 32.351 49.6314 32.2672 49.6712 32.1744C49.711 32.0817 49.7315 31.9819 49.7315 31.881C49.7315 31.7802 49.711 31.6804 49.6712 31.5876C49.6314 31.4949 49.5731 31.4111 49.4999 31.3413C49.4267 31.2715 49.34 31.2171 49.2451 31.1815C49.1502 31.1459 49.049 31.1297 48.9476 31.134Z" fill="black"/>
<path d="M48.9476 29.1484H46.4091C46.2153 29.1565 46.0321 29.2388 45.8978 29.378C45.7636 29.5172 45.6886 29.7026 45.6886 29.8954C45.6886 30.0883 45.7636 30.2737 45.8978 30.4129C46.0321 30.5521 46.2153 30.6344 46.4091 30.6425H48.9476C49.049 30.6468 49.1502 30.6306 49.2451 30.595C49.34 30.5593 49.4267 30.505 49.4999 30.4352C49.5731 30.3654 49.6314 30.2816 49.6712 30.1888C49.711 30.0961 49.7315 29.9963 49.7315 29.8954C49.7315 29.7946 49.711 29.6948 49.6712 29.602C49.6314 29.5093 49.5731 29.4255 49.4999 29.3557C49.4267 29.2859 49.34 29.2315 49.2451 29.1959C49.1502 29.1603 49.049 29.1441 48.9476 29.1484Z" fill="black"/>
<path d="M48.9476 27.1616H46.4091C46.2153 27.1697 46.0321 27.2519 45.8978 27.3912C45.7636 27.5304 45.6886 27.7158 45.6886 27.9086C45.6886 28.1015 45.7636 28.2869 45.8978 28.4261C46.0321 28.5653 46.2153 28.6476 46.4091 28.6557H48.9476C49.049 28.6599 49.1502 28.6438 49.2451 28.6081C49.34 28.5725 49.4267 28.5182 49.4999 28.4484C49.5731 28.3786 49.6314 28.2948 49.6712 28.202C49.711 28.1093 49.7315 28.0095 49.7315 27.9086C49.7315 27.8078 49.711 27.708 49.6712 27.6152C49.6314 27.5225 49.5731 27.4387 49.4999 27.3689C49.4267 27.2991 49.34 27.2447 49.2451 27.2091C49.1502 27.1735 49.049 27.1573 48.9476 27.1616Z" fill="black"/>
<path d="M48.9476 24.0072H46.4091C46.2096 24.0072 46.0182 24.086 45.8772 24.2262C45.7361 24.3664 45.6569 24.5566 45.6569 24.7549C45.6569 24.9532 45.7361 25.1434 45.8772 25.2837C46.0182 25.4239 46.2096 25.5027 46.4091 25.5027H48.9476C49.1471 25.5027 49.3384 25.4239 49.4795 25.2837C49.6205 25.1434 49.6998 24.9532 49.6998 24.7549C49.6998 24.5566 49.6205 24.3664 49.4795 24.2262C49.3384 24.086 49.1471 24.0072 48.9476 24.0072Z" fill="black"/>
<path d="M48.9476 22.0217H46.4091C46.2153 22.0298 46.0321 22.112 45.8978 22.2513C45.7636 22.3905 45.6886 22.5759 45.6886 22.7687C45.6886 22.9616 45.7636 23.147 45.8978 23.2862C46.0321 23.4254 46.2153 23.5077 46.4091 23.5158H48.9476C49.049 23.52 49.1502 23.5039 49.2451 23.4682C49.34 23.4326 49.4267 23.3783 49.4999 23.3085C49.5731 23.2387 49.6314 23.1549 49.6712 23.0621C49.711 22.9694 49.7315 22.8696 49.7315 22.7687C49.7315 22.6679 49.711 22.5681 49.6712 22.4753C49.6314 22.3826 49.5731 22.2988 49.4999 22.229C49.4267 22.1592 49.34 22.1048 49.2451 22.0692C49.1502 22.0336 49.049 22.0174 48.9476 22.0217Z" fill="black"/>
<path d="M48.9476 20.0348H46.4091C46.2153 20.043 46.0321 20.1252 45.8978 20.2644C45.7636 20.4037 45.6886 20.5891 45.6886 20.7819C45.6886 20.9748 45.7636 21.1602 45.8978 21.2994C46.0321 21.4386 46.2153 21.5209 46.4091 21.529H48.9476C49.049 21.5332 49.1502 21.5171 49.2451 21.4814C49.34 21.4458 49.4267 21.3915 49.4999 21.3217C49.5731 21.2519 49.6314 21.1681 49.6712 21.0753C49.711 20.9826 49.7315 20.8828 49.7315 20.7819C49.7315 20.6811 49.711 20.5813 49.6712 20.4885C49.6314 20.3957 49.5731 20.312 49.4999 20.2422C49.4267 20.1724 49.34 20.118 49.2451 20.0824C49.1502 20.0468 49.049 20.0306 48.9476 20.0348Z" fill="black"/>
<path d="M53.5864 12.3476C53.5254 11.3678 53.1197 10.4406 52.4405 9.72803C51.7613 9.01546 50.8517 8.56292 49.8708 8.44953C47.0648 8.12053 44.2417 7.95732 41.4162 7.96078H41.2465C41.2332 7.73367 41.2211 7.50789 41.2064 7.28078C41.106 5.59025 40.4033 3.9905 39.2242 2.7681C38.0452 1.54571 36.4669 0.780521 34.772 0.60961C26.8688 -0.203203 18.9024 -0.203203 10.9993 0.60961C9.30455 0.780558 7.72639 1.54579 6.54758 2.76821C5.36877 3.99064 4.66634 5.59036 4.56616 7.28078C3.81128 19.4153 3.81128 31.5847 4.56616 43.7192C4.66634 45.4096 5.36877 47.0094 6.54758 48.2318C7.72639 49.4542 9.30455 50.2194 10.9993 50.3904C14.9498 50.797 18.9187 51.0005 22.8903 51C26.8619 51.0005 30.8309 50.797 34.7813 50.3904C36.3032 50.2366 37.7351 49.6006 38.8657 48.5762C38.9387 48.5102 38.998 48.4306 39.0402 48.3419C39.0823 48.2532 39.1065 48.1571 39.1112 48.0592C39.116 47.9612 39.1013 47.8632 39.068 47.7709C39.0347 47.6785 38.9834 47.5936 38.9171 47.521C38.8508 47.4483 38.7707 47.3894 38.6815 47.3475C38.5922 47.3056 38.4956 47.2816 38.397 47.2769C38.2984 47.2721 38.1999 47.2867 38.107 47.3198C38.0141 47.3529 37.9287 47.4039 37.8556 47.4698C36.958 48.2805 35.8213 48.7817 34.6143 48.8989C26.8143 49.7024 18.9516 49.7024 11.1516 48.8989C9.81112 48.7639 8.5628 48.1586 7.63048 47.1917C6.69815 46.2248 6.14277 44.9593 6.06389 43.6223C5.31147 31.5479 5.31147 19.4388 6.06389 7.36445C6.14299 6.02732 6.69842 4.76187 7.63067 3.79475C8.56293 2.82764 9.81111 2.22206 11.1516 2.08648C18.9517 1.2843 26.8142 1.2843 34.6143 2.08648C35.9551 2.22177 37.2036 2.82722 38.1361 3.79436C39.0686 4.7615 39.6242 6.02712 39.7034 7.36445C40.4545 19.4389 40.4545 31.5479 39.7034 43.6223C39.6664 44.2274 39.531 44.8226 39.3026 45.3847C39.2368 45.5665 39.2443 45.7666 39.3237 45.943C39.403 46.1194 39.548 46.2585 39.7282 46.3309C39.9084 46.4034 40.1099 46.4037 40.2903 46.3318C40.4708 46.2599 40.6162 46.1213 40.6961 45.9451C40.9852 45.2339 41.1566 44.4809 41.2038 43.7152C41.2185 43.4881 41.2305 43.2623 41.2439 43.0352H41.5111C44.3027 43.0346 47.0918 42.8714 49.8642 42.5465C50.8468 42.4342 51.7583 41.9816 52.4389 41.2681C53.1195 40.5547 53.5258 39.6258 53.5864 38.6444C54.1379 29.8874 54.1379 21.1046 53.5864 12.3476ZM52.0901 38.5555C52.0502 39.1858 51.7889 39.7821 51.3518 40.2404C50.9147 40.6987 50.3295 40.9898 49.6985 41.063C46.9524 41.386 44.1894 41.5461 41.4242 41.5424H41.3361C41.9213 30.8527 41.9213 20.1393 41.3361 9.44961H41.4229C44.1885 9.44777 46.9518 9.60786 49.6985 9.92906C50.3295 10.0022 50.9147 10.2933 51.3518 10.7516C51.7889 11.2099 52.0502 11.8063 52.0901 12.4366C52.6365 21.1344 52.6365 29.8576 52.0901 38.5555Z" fill="black"/>
<path d="M37.4534 8.80015C37.3391 7.68436 36.8228 6.64728 35.9998 5.88013C35.1767 5.11299 34.1024 4.66751 32.9749 4.62585C26.2839 4.36023 19.4954 4.36023 12.8003 4.62585C11.673 4.66747 10.5989 5.11276 9.77587 5.87963C8.95285 6.64651 8.43645 7.68327 8.32184 8.79882C8.09471 10.8947 8.09471 13.0088 8.32184 15.1048C8.41083 15.9137 8.70968 16.6857 9.18911 17.3453C9.66854 18.0049 10.3121 18.5294 11.0568 18.8673C11.1473 18.9124 11.2461 18.9389 11.3472 18.9451C11.4482 18.9513 11.5495 18.9372 11.645 18.9035C11.7404 18.8699 11.8281 18.8175 11.9026 18.7493C11.9772 18.6812 12.0371 18.5989 12.0789 18.5071C12.1207 18.4154 12.1434 18.3163 12.1457 18.2157C12.1479 18.115 12.1298 18.015 12.0922 17.9215C12.0546 17.828 11.9985 17.743 11.9271 17.6716C11.8557 17.6002 11.7705 17.5439 11.6767 17.506C11.1699 17.2757 10.732 16.9185 10.4057 16.4694C10.0795 16.0203 9.87613 15.4947 9.81556 14.9441C9.60045 12.9549 9.60045 10.9486 9.81556 8.95953C9.8925 8.20048 10.2432 7.49476 10.8029 6.9728C11.3627 6.45084 12.0935 6.14791 12.8605 6.11999C19.5141 5.85437 26.2599 5.85437 32.9121 6.11999C33.679 6.14767 34.4099 6.45056 34.9694 6.9726C35.529 7.49463 35.8793 8.20048 35.9557 8.95953C36.1721 10.949 36.1721 12.9559 35.9557 14.9454C35.8788 15.7042 35.5282 16.4098 34.9688 16.9317C34.4094 17.4536 33.6789 17.7567 32.9121 17.7849C26.7662 18.0333 20.5228 18.0505 14.3582 17.8407C14.2596 17.8373 14.1613 17.8532 14.0689 17.8876C13.9764 17.922 13.8918 17.9741 13.8196 18.041C13.7475 18.1079 13.6893 18.1883 13.6484 18.2775C13.6075 18.3668 13.5847 18.4632 13.5813 18.5612C13.5778 18.6592 13.5939 18.757 13.6284 18.8488C13.663 18.9407 13.7155 19.0249 13.7828 19.0966C13.8501 19.1683 13.9309 19.2261 14.0207 19.2668C14.1105 19.3074 14.2075 19.3301 14.3061 19.3335C17.1572 19.4318 20.0244 19.4809 22.8916 19.4809C26.2612 19.4809 29.6321 19.4132 32.9736 19.2777C34.1006 19.2358 35.1745 18.7904 35.9972 18.0235C36.82 17.2567 37.3362 16.2201 37.4508 15.1048C37.6779 13.0093 37.6779 10.8956 37.4508 8.80015H37.4534Z" fill="black"/>
<path d="M33.0858 21.7853C26.2971 21.3019 19.4822 21.3019 12.6934 21.7853C11.6328 21.8566 10.6324 22.301 9.87148 23.0389C9.11055 23.7768 8.63885 24.76 8.54094 25.8122C8.02656 31.2961 8.02656 36.8156 8.54094 42.2995C8.63915 43.3515 9.11098 44.3344 9.87188 45.072C10.6328 45.8097 11.633 46.2539 12.6934 46.3251C16.0764 46.5668 19.482 46.689 22.889 46.689C26.2959 46.689 29.7029 46.5668 33.0858 46.3251C34.1463 46.2541 35.1467 45.81 35.9077 45.0723C36.6686 44.3346 37.1404 43.3516 37.2383 42.2995C37.7514 36.8156 37.7514 31.2961 37.2383 25.8122C37.1404 24.76 36.6687 23.7768 35.9078 23.0389C35.1469 22.301 34.1464 21.8566 33.0858 21.7853ZM35.7406 25.9503C35.8448 27.0553 35.9267 28.1621 35.9864 29.2706C33.5521 29.2109 31.0964 29.1684 28.6621 29.1378C28.6314 27.0952 28.5793 25.0472 28.5071 23.0218C30.0008 23.0802 31.491 23.1626 32.9776 23.2688C33.6828 23.3148 34.3484 23.6093 34.8549 24.0993C35.3613 24.5893 35.6753 25.2428 35.7406 25.9423V25.9503ZM9.72202 30.7701C12.1724 30.709 14.6454 30.6665 17.0971 30.6373C17.0731 32.9084 17.0731 35.1981 17.0971 37.4678C14.6454 37.4413 12.1724 37.3988 9.72202 37.335C9.63919 35.1476 9.63919 32.9522 9.72202 30.7648V30.7701ZM18.6015 37.4851C18.5761 35.206 18.5761 32.9057 18.6015 30.6253C21.4514 30.6027 24.3266 30.6027 27.1777 30.6253C27.2031 32.9057 27.2031 35.2047 27.1777 37.4851C24.3279 37.509 21.4514 37.509 18.6015 37.4851ZM28.6808 30.6399C31.1338 30.6665 33.6055 30.709 36.0559 30.7727C36.1387 32.9615 36.1387 35.1516 36.0559 37.343C33.6055 37.4041 31.1338 37.4466 28.6808 37.4758C28.7062 35.206 28.7062 32.9163 28.6808 30.6452V30.6399ZM26.9987 22.9727C27.0708 25.0087 27.1243 27.0713 27.1564 29.1259C24.3186 29.1033 21.4554 29.1033 18.6176 29.1259C18.6496 27.0713 18.7017 25.0087 18.7739 22.9727C20.1447 22.9328 21.5155 22.9124 22.8863 22.9116C24.2571 22.9107 25.6279 22.931 26.9987 22.9727ZM10.0307 25.945C10.0962 25.2456 10.4103 24.5922 10.9167 24.1023C11.423 23.6123 12.0885 23.3177 12.7936 23.2715C14.2802 23.1644 15.7704 23.082 17.2641 23.0245C17.1933 25.0499 17.1412 27.0978 17.1105 29.1405C14.6748 29.1657 12.2191 29.2082 9.78482 29.2733C9.84449 28.1639 9.92644 27.0571 10.0307 25.953V25.945ZM10.0307 42.1548C9.92644 41.0498 9.84449 39.943 9.78482 38.8345C12.2191 38.8942 14.6748 38.9367 17.1105 38.9673C17.1412 41.0099 17.1933 43.0579 17.2641 45.0833C15.7704 45.0231 14.2802 44.9407 12.7936 44.8363C12.0884 44.7897 11.4229 44.4949 10.9166 44.0047C10.4102 43.5145 10.0961 42.861 10.0307 42.1614V42.1548ZM18.7699 45.1284C18.6977 43.0924 18.6456 41.0298 18.6135 38.9739C20.0324 38.9854 21.4576 38.9916 22.889 38.9925C24.3203 38.9934 25.7455 38.9872 27.1644 38.9739C27.1323 41.0298 27.0789 43.0911 27.0067 45.1284C24.2678 45.2072 21.5262 45.2072 18.7819 45.1284H18.7699ZM35.7379 42.1548C35.6724 42.8543 35.3584 43.5078 34.852 43.998C34.3457 44.4882 33.6802 44.7831 32.9749 44.8296C31.4892 44.9359 29.9995 45.0182 28.5058 45.0766C28.5766 43.0513 28.6287 41.002 28.6594 38.9606C31.0951 38.9341 33.5494 38.8916 35.9837 38.8278C35.9241 39.9381 35.8421 41.0449 35.7379 42.1481V42.1548Z" fill="black"/>
<path d="M31.5921 14.6997C30.6876 14.6997 30.3896 14.6651 29.6802 14.288C29.593 14.2371 29.4963 14.2043 29.396 14.1915C29.2958 14.1786 29.1939 14.186 29.0966 14.2131C28.9992 14.2403 28.9084 14.2867 28.8295 14.3495C28.7506 14.4124 28.6852 14.4904 28.6373 14.5789C28.5895 14.6674 28.56 14.7646 28.5508 14.8647C28.5415 14.9648 28.5527 15.0657 28.5835 15.1614C28.6144 15.2571 28.6644 15.3456 28.7304 15.4217C28.7965 15.4978 28.8773 15.5598 28.9681 15.6041C29.7029 16.0026 30.2186 16.1354 30.8385 16.1752V16.4741C30.8343 16.5748 30.8505 16.6754 30.8864 16.7697C30.9222 16.8641 30.9769 16.9502 31.0471 17.023C31.1173 17.0958 31.2016 17.1538 31.2949 17.1933C31.3882 17.2329 31.4886 17.2533 31.5901 17.2533C31.6915 17.2533 31.7919 17.2329 31.8853 17.1933C31.9786 17.1538 32.0629 17.0958 32.1331 17.023C32.2033 16.9502 32.2579 16.8641 32.2938 16.7697C32.3296 16.6754 32.3459 16.5748 32.3416 16.4741V16.1168C33.7191 15.8366 34.5582 14.8192 34.6998 13.8165C34.8334 12.9054 34.3925 11.6716 32.7438 11.1934C31.9274 10.9584 31.0229 10.6715 30.5059 10.3394C30.4343 10.2924 30.3791 10.2245 30.3478 10.1452C30.3165 10.0658 30.3106 9.97871 30.3308 9.89586C30.3749 9.64086 30.5887 9.32609 31.0617 9.20921C31.3655 9.12478 31.6833 9.10126 31.9964 9.14002C32.3094 9.17878 32.6117 9.27905 32.8854 9.435C32.9685 9.49459 33.0629 9.53666 33.163 9.55861C33.263 9.58056 33.3665 9.58192 33.4671 9.56261C33.5677 9.54331 33.6633 9.50375 33.7479 9.44636C33.8326 9.38897 33.9045 9.31497 33.9593 9.22892C34.0141 9.14286 34.0506 9.04657 34.0665 8.94597C34.0825 8.84537 34.0775 8.74259 34.052 8.64395C34.0265 8.54531 33.981 8.45291 33.9182 8.37242C33.8555 8.29193 33.7768 8.22506 33.687 8.17593C33.2763 7.92466 32.8194 7.75717 32.343 7.6832V7.43351C32.3348 7.24083 32.252 7.05873 32.112 6.92527C31.9719 6.7918 31.7854 6.71729 31.5914 6.71729C31.3974 6.71729 31.2109 6.7918 31.0709 6.92527C30.9308 7.05873 30.8481 7.24083 30.8399 7.43351V7.73234C30.7945 7.74296 30.7477 7.75226 30.7063 7.76421C29.7336 8.00328 29.0055 8.7457 28.8532 9.65547C28.7842 10.026 28.8274 10.4085 28.9772 10.7546C29.1271 11.1007 29.3768 11.3949 29.6949 11.5998C30.2427 11.9518 31.0056 12.2506 32.3283 12.6331C32.9549 12.8151 33.2782 13.1723 33.2167 13.6146C33.1419 14.1392 32.5487 14.6997 31.5921 14.705V14.6997Z" fill="black"/>
</g>
<defs>
<filter id="filter0_ddd_1_239" x="0" y="0" width="58" height="59" filterUnits="userSpaceOnUse" color-interpolation-filters="sRGB">
<feFlood flood-opacity="0" result="BackgroundImageFix"/>
<feColorMatrix in="SourceAlpha" type="matrix" values="0 0 0 0 0 0 0 0 0 0 0 0 0 0 0 0 0 0 127 0" result="hardAlpha"/>
<feOffset dy="4"/>
<feGaussianBlur stdDeviation="2"/>
<feComposite in2="hardAlpha" operator="out"/>
<feColorMatrix type="matrix" values="0 0 0 0 0 0 0 0 0 0 0 0 0 0 0 0 0 0 0.25 0"/>
<feBlend mode="normal" in2="BackgroundImageFix" result="effect1_dropShadow_1_239"/>
<feColorMatrix in="SourceAlpha" type="matrix" values="0 0 0 0 0 0 0 0 0 0 0 0 0 0 0 0 0 0 127 0" result="hardAlpha"/>
<feOffset dy="4"/>
<feGaussianBlur stdDeviation="2"/>
<feComposite in2="hardAlpha" operator="out"/>
<feColorMatrix type="matrix" values="0 0 0 0 0 0 0 0 0 0 0 0 0 0 0 0 0 0 0.25 0"/>
<feBlend mode="normal" in2="effect1_dropShadow_1_239" result="effect2_dropShadow_1_239"/>
<feColorMatrix in="SourceAlpha" type="matrix" values="0 0 0 0 0 0 0 0 0 0 0 0 0 0 0 0 0 0 127 0" result="hardAlpha"/>
<feOffset dy="4"/>
<feGaussianBlur stdDeviation="2"/>
<feComposite in2="hardAlpha" operator="out"/>
<feColorMatrix type="matrix" values="0 0 0 0 0 0 0 0 0 0 0 0 0 0 0 0 0 0 0.25 0"/>
<feBlend mode="normal" in2="effect2_dropShadow_1_239" result="effect3_dropShadow_1_239"/>
<feBlend mode="normal" in="SourceGraphic" in2="effect3_dropShadow_1_239" result="shape"/>
</filter>
</defs>
</svg>
